o BigCannonCase
v 0.002385 0.000000 -0.162500
v -0.273957 -0.140729 -0.081250
v -0.273957 0.000000 -0.162500
v 0.002385 -0.140729 -0.081250
v -0.273957 -0.140729 0.081250
v 0.002385 -0.140729 0.081250
v -0.273957 -0.000000 0.162500
v 0.002385 -0.000000 0.162500
v -0.273957 0.140729 0.081250
v 0.190438 0.118807 0.068594
v 0.002385 0.140729 0.081250
v -0.273957 0.140729 -0.081250
v 0.002385 0.140729 -0.081250
v -0.314647 -0.158897 0.091739
v -0.330556 -0.000000 0.183478
v -0.330556 -0.158897 0.091739
v -0.314647 0.158897 -0.091739
v -0.330556 0.000000 -0.183478
v -0.330556 0.158897 -0.091739
v -0.305208 -0.134426 0.077611
v -0.305208 -0.149457 -0.086290
v -0.305208 -0.134426 -0.077611
v -0.314647 -0.158896 -0.091739
v -0.330556 -0.158896 -0.091739
v -0.314647 0.158896 0.091739
v -0.330556 0.158896 0.091739
v -0.330556 0.128166 -0.073996
v -0.330556 0.000000 -0.147993
v -0.314647 -0.000000 0.183478
v -0.305208 0.000000 -0.172579
v -0.305208 0.149458 -0.086289
v -0.305208 0.149458 0.086290
v -0.305208 -0.000000 0.172579
v -0.305208 -0.149458 0.086289
v -0.314647 0.000000 -0.183478
v -0.273957 -0.134426 -0.077611
v -0.273957 0.000000 -0.155222
v -0.273957 -0.000000 0.155222
v -0.273957 0.134426 -0.077611
v -0.305208 0.000000 -0.155222
v -0.305208 0.134426 -0.077611
v -0.273957 0.134426 0.077611
v -0.305208 0.134426 0.077611
v -0.305208 -0.000000 0.155222
v -0.273957 -0.134426 0.077611
v 0.190438 -0.118807 -0.068594
v 0.327376 -0.114781 0.066268
v 0.190438 -0.118808 0.068593
v 0.190438 0.118808 -0.068593
v 0.190438 -0.000000 0.137187
v 0.190438 0.000000 -0.137187
v 0.327376 0.103971 0.060028
v 0.190528 0.107404 -0.062010
v 0.327376 0.103971 -0.060028
v 0.327376 0.114781 -0.066268
v 0.327376 -0.000000 0.132537
v 0.327376 -0.114780 -0.066269
v 0.327376 0.000000 -0.132537
v 0.327376 0.114780 0.066269
v -0.318741 0.000000 -0.134350
v -0.305583 0.116350 -0.067175
v -0.318741 0.116350 -0.067175
v -0.318741 -0.000000 0.134350
v -0.305583 -0.116350 0.067175
v -0.318741 -0.116350 0.067175
v -0.318741 0.116350 0.067175
v -0.305583 -0.000000 0.134350
v -0.305583 0.116350 0.067175
v -0.305583 -0.116350 -0.067175
v -0.318741 -0.116350 -0.067175
v -0.305583 0.093961 -0.054248
v -0.326501 0.000000 -0.080529
v -0.326501 0.069741 -0.040265
v -0.305583 0.000000 -0.134350
v -0.330556 0.128166 0.073997
v -0.330556 -0.128166 0.073996
v -0.330556 -0.000000 0.147993
v -0.305583 0.000000 -0.108497
v -0.305583 -0.093961 -0.054249
v -0.305583 -0.093961 0.054248
v -0.305583 -0.000000 0.108497
v -0.305583 0.093961 0.054249
v -0.326501 -0.069740 -0.040265
v -0.326501 -0.000000 0.080529
v -0.326501 0.069740 0.040265
v -0.326501 -0.069741 0.040265
v -0.330556 -0.128166 -0.073997
v 0.327376 0.000000 -0.120056
v 0.327376 -0.103971 0.060028
v 0.327376 -0.103971 -0.060028
v 0.327376 -0.000000 0.120056
v 0.190528 0.000000 -0.124020
v 0.002379 0.130180 -0.075159
v 0.002379 0.000000 -0.150319
v 0.190528 -0.000000 0.124020
v 0.190528 -0.107404 -0.062010
v 0.190528 0.107404 0.062010
v 0.190528 -0.107404 0.062010
v 0.002379 0.130180 0.075160
v -0.277012 0.130180 -0.075159
v 0.002379 -0.130180 0.075159
v 0.002379 -0.000000 0.150319
v 0.002379 -0.130180 -0.075160
v -0.277012 0.130180 0.075160
v -0.277012 -0.000000 0.150319
v -0.277012 -0.130180 0.075159
v -0.277012 -0.130180 -0.075160
v -0.277012 0.000000 -0.150319
vt 0.514178 0.023369
vt 0.492855 0.032947
vt 0.493335 0.022420
vt 0.513379 0.033715
vt 0.492563 0.043730
vt 0.513278 0.043883
vt 0.492588 0.054640
vt 0.521825 0.065577
vt 0.503376 0.073865
vt 0.503790 0.064756
vt 0.529245 0.074922
vt 0.521134 0.074529
vt 0.503123 0.083195
vt 0.521047 0.083327
vt 0.503144 0.092635
vt 0.472889 0.040370
vt 0.457461 0.029471
vt 0.474670 0.039442
vt 0.442002 0.058465
vt 0.457587 0.069274
vt 0.440207 0.059407
vt 0.470060 0.042002
vt 0.471595 0.057373
vt 0.470178 0.056572
vt 0.472978 0.058170
vt 0.474670 0.059239
vt 0.441895 0.040485
vt 0.440189 0.039399
vt 0.448829 0.109944
vt 0.445444 0.090687
vt 0.448920 0.092766
vt 0.457370 0.031484
vt 0.457663 0.065656
vt 0.443400 0.057656
vt 0.443289 0.041293
vt 0.457364 0.033090
vt 0.471501 0.041168
vt 0.457666 0.067261
vt 0.526841 0.117642
vt 0.516643 0.112281
vt 0.516643 0.111753
vt 0.506901 0.117905
vt 0.506444 0.117642
vt 0.516643 0.135306
vt 0.526384 0.129154
vt 0.526841 0.129418
vt 0.834207 0.076456
vt 0.838370 0.055781
vt 0.838370 0.076456
vt 0.834207 0.097131
vt 0.838370 0.097131
vt 0.834207 0.117807
vt 0.838370 0.117807
vt 0.727887 0.049568
vt 0.731350 0.032370
vt 0.731350 0.049568
vt 0.727887 0.066766
vt 0.731350 0.066766
vt 0.727887 0.083964
vt 0.731350 0.083964
vt 0.506901 0.129154
vt 0.506444 0.129418
vt 0.516643 0.134778
vt 0.526384 0.117905
vt 0.522753 0.034169
vt 0.531978 0.043272
vt 0.522807 0.043524
vt 0.529292 0.083017
vt 0.523547 0.052752
vt 0.513887 0.054372
vt 0.529932 0.091001
vt 0.521574 0.092404
vt 0.778836 0.079663
vt 0.756673 0.059905
vt 0.778836 0.060226
vt 0.537227 0.082799
vt 0.532516 0.051979
vt 0.523438 0.025021
vt 0.531990 0.034510
vt 0.537693 0.090333
vt 0.529838 0.067006
vt 0.537238 0.075217
vt 0.820059 0.105720
vt 0.806669 0.101393
vt 0.806472 0.099703
vt 0.793466 0.122046
vt 0.806856 0.126373
vt 0.807054 0.128063
vt 0.793466 0.107291
vt 0.794884 0.120982
vt 0.795005 0.108073
vt 0.818520 0.119693
vt 0.820059 0.120475
vt 0.671148 0.033409
vt 0.664758 0.052331
vt 0.664985 0.037269
vt 0.818641 0.106784
vt 0.463861 0.118429
vt 0.482409 0.112074
vt 0.463807 0.122471
vt 0.478887 0.092815
vt 0.463965 0.080161
vt 0.482409 0.090817
vt 0.445304 0.111949
vt 0.478924 0.109994
vt 0.734136 0.116192
vt 0.731726 0.103121
vt 0.734136 0.104513
vt 0.744251 0.098673
vt 0.744251 0.095890
vt 0.756776 0.103121
vt 0.754366 0.104513
vt 0.756776 0.117584
vt 0.754366 0.116192
vt 0.744251 0.124815
vt 0.744251 0.122032
vt 0.731726 0.117584
vt 0.611889 0.084462
vt 0.629561 0.115071
vt 0.594217 0.115071
vt 0.651619 0.022490
vt 0.638574 0.037186
vt 0.632184 0.033711
vt 0.632184 0.056109
vt 0.651473 0.059762
vt 0.651712 0.067028
vt 0.651859 0.029756
vt 0.638347 0.052249
vt 0.671148 0.055807
vt 0.463917 0.084211
vt 0.450841 0.093831
vt 0.463965 0.086410
vt 0.477000 0.108930
vt 0.477015 0.093964
vt 0.450702 0.108792
vt 0.463815 0.116233
vt 0.485927 0.080097
vt 0.495689 0.075522
vt 0.485927 0.081159
vt 0.494770 0.064780
vt 0.494770 0.074991
vt 0.485927 0.059675
vt 0.495689 0.064249
vt 0.476164 0.064249
vt 0.485927 0.058613
vt 0.477083 0.064780
vt 0.476164 0.075522
vt 0.477083 0.074991
vt 0.802487 0.020876
vt 0.789023 0.029654
vt 0.791210 0.017729
vt 0.823775 0.062437
vt 0.805763 0.045419
vt 0.824244 0.046222
vt 0.824244 0.094874
vt 0.805278 0.078926
vt 0.823775 0.078659
vt 0.757255 0.039835
vt 0.779399 0.040798
vt 0.779399 0.099092
vt 0.756673 0.079984
vt 0.805278 0.062169
vt 0.145065 0.097403
vt 0.000642 0.051942
vt 0.145065 0.051942
vt 0.802487 0.050557
vt 0.789023 0.041779
vt 0.800682 0.040718
vt 0.794191 0.078495
vt 0.782532 0.067431
vt 0.794191 0.068492
vt 0.800682 0.030715
vt 0.795997 0.058653
vt 0.784720 0.055506
vt 0.795997 0.088335
vt 0.782532 0.079556
vt 0.000845 0.082758
vt 0.000845 0.082961
vt 0.000669 0.083063
vt 0.145065 0.051942
vt 0.000642 0.006480
vt 0.145065 0.006480
vt 0.145065 0.142864
vt 0.000642 0.097403
vt 0.145065 0.097403
vt 0.000642 0.006480
vt 0.145065 0.006480
vt 0.145065 0.142864
vt 0.000642 0.097403
vt 0.000642 0.051942
vt 0.457637 0.063986
vt 0.444874 0.056787
vt 0.444741 0.042129
vt 0.457362 0.034760
vt 0.834207 0.055781
vt 0.727887 0.032370
vt 0.532516 0.025718
vt 0.537693 0.067610
vt 0.594217 0.094665
vt 0.629561 0.094665
vt 0.611889 0.125274
vt 0.805763 0.095677
vt 0.757255 0.100054
vt 0.791210 0.053704
vt 0.784720 0.091482
vt 0.000493 0.082961
vt 0.000493 0.082758
vt 0.000669 0.082657
vt 0.000642 0.142864
vt 0.000642 0.142864
vn 0.0655 0.0000 -0.9979
vn 0.0000 -0.8660 -0.5000
vn 0.0000 0.0000 -1.0000
vn 0.0655 -0.8642 -0.4989
vn 0.0000 -0.8660 0.5000
vn 0.0655 -0.8642 0.4989
vn 0.0000 -0.0000 1.0000
vn 0.0655 -0.0000 0.9979
vn 0.0000 0.8660 0.5000
vn 0.0851 0.8629 0.4982
vn 0.0655 0.8642 0.4989
vn 0.0000 0.8660 -0.5000
vn 0.0655 0.8642 -0.4989
vn 0.3724 -0.8037 0.4640
vn 0.3724 0.8037 -0.4640
vn 1.0000 -0.0000 0.0000
vn 0.8969 -0.3830 -0.2211
vn 0.3724 -0.8037 -0.4640
vn 0.3724 0.8037 0.4640
vn -0.9708 -0.2078 0.1200
vn -1.0000 0.0000 0.0000
vn -0.9708 -0.0000 0.2400
vn 0.3724 -0.0000 0.9281
vn 0.8969 0.0000 -0.4423
vn 0.8969 0.3830 -0.2211
vn 0.8969 0.3830 0.2211
vn 0.8969 -0.0000 0.4423
vn 0.8969 -0.3830 0.2211
vn 0.3724 0.0000 -0.9281
vn 0.0851 -0.8629 -0.4982
vn 0.0339 -0.8655 0.4997
vn 0.0851 -0.8629 0.4982
vn 0.0851 0.8629 -0.4982
vn 0.0851 0.0000 0.9964
vn 0.0851 0.0000 -0.9964
vn -0.0290 -0.8657 -0.4998
vn -0.0853 -0.8629 0.4982
vn -0.0290 -0.8657 0.4998
vn 0.0339 0.8655 -0.4997
vn 0.0339 0.0000 0.9994
vn 0.0339 -0.8655 -0.4997
vn 0.0339 0.0000 -0.9994
vn 0.0339 0.8655 0.4997
vn -0.8008 0.5187 -0.2995
vn -0.8008 -0.0000 -0.5989
vn -0.9708 -0.2078 -0.1200
vn -0.9708 0.2078 -0.1200
vn -0.9708 0.0000 -0.2400
vn -0.8008 0.5187 0.2995
vn -0.8008 0.0000 0.5989
vn -0.8008 -0.5187 0.2995
vn -0.8008 -0.5187 -0.2995
vn -0.9708 0.2078 0.1200
vn -0.7559 -0.0000 0.6546
vn -0.7559 0.5669 0.3273
vn -0.7559 0.0000 -0.6546
vn -0.7559 0.5669 -0.3273
vn -0.7559 -0.5669 0.3273
vn -0.7559 -0.5669 -0.3273
vn -0.0853 -0.0000 0.9964
vn -0.0679 -0.8640 0.4988
vn -0.0679 -0.0000 0.9977
vn -0.0290 0.8657 -0.4998
vn -0.0853 0.0000 -0.9964
vn -0.0290 -0.0000 -0.9996
vn -0.0290 -0.0000 0.9996
vn -0.0853 0.8629 0.4982
vn -0.0290 0.8657 0.4998
vn -0.0853 -0.8629 -0.4982
vn -0.0853 0.8629 -0.4982
vn -0.0679 -0.8640 -0.4988
vn -0.0679 0.8640 -0.4988
vn -0.0679 0.0000 -0.9977
vn -0.0679 0.8640 0.4988
usemtl Material.002
s 1
f 1/1/1 2/2/2 3/3/3
f 4/4/4 5/5/5 2/2/2
f 6/6/6 7/7/7 5/5/5
f 8/8/8 9/9/9 7/10/7
f 8/8/8 10/11/10 11/12/11
f 11/12/11 12/13/12 9/9/9
f 13/14/13 3/15/3 12/13/12
f 14/16/14 15/17/7 16/18/5
f 17/19/15 18/20/3 19/21/12
f 20/22/16 21/23/17 22/24/16
f 23/25/18 16/18/5 24/26/2
f 25/27/19 19/21/12 26/28/9
f 27/29/20 18/30/21 28/31/22
f 29/32/23 26/28/9 15/17/7
f 30/33/24 17/19/15 31/34/25
f 31/34/25 25/27/19 32/35/26
f 32/35/26 29/32/23 33/36/27
f 33/36/27 14/16/14 34/37/28
f 34/37/28 23/25/18 21/23/17
f 21/23/17 35/38/29 30/33/24
f 35/38/29 24/26/2 18/20/3
f 5/39/21 36/40/21 2/41/21
f 2/41/21 37/42/21 3/43/21
f 9/44/21 38/45/21 7/46/21
f 39/47/12 40/48/3 41/49/12
f 42/50/9 41/49/12 43/51/9
f 38/52/7 43/51/9 44/53/7
f 45/54/5 44/55/7 20/56/5
f 36/57/2 20/56/5 22/58/2
f 37/59/3 22/58/2 40/60/3
f 3/43/21 39/61/21 12/62/21
f 12/62/21 42/63/21 9/44/21
f 5/39/21 38/45/21 45/64/21
f 46/65/30 47/66/31 48/67/32
f 4/4/4 48/67/32 6/6/6
f 11/12/11 49/68/33 13/14/13
f 1/1/1 46/65/30 4/4/4
f 6/6/6 50/69/34 8/70/8
f 13/14/13 51/71/35 1/72/1
f 52/73/36 53/74/37 54/75/38
f 10/11/10 55/76/39 49/68/33
f 48/67/32 56/77/40 50/69/34
f 51/78/35 57/79/41 46/65/30
f 51/71/35 55/76/39 58/80/42
f 50/81/34 59/82/43 10/11/10
f 60/83/7 61/84/5 62/85/5
f 63/86/3 64/87/12 65/88/12
f 66/89/2 67/90/3 63/86/3
f 62/85/5 68/91/2 66/89/2
f 65/88/12 69/92/9 70/93/9
f 71/94/44 72/95/45 73/96/44
f 70/93/9 74/97/7 60/83/7
f 75/98/46 15/99/21 26/100/21
f 76/101/47 24/102/21 16/103/21
f 75/98/46 19/104/21 27/29/20
f 76/101/47 15/99/21 77/105/48
f 78/106/21 69/107/21 79/108/21
f 80/109/21 69/107/21 64/110/21
f 80/109/21 67/111/21 81/112/21
f 81/112/21 68/113/21 82/114/21
f 82/114/21 61/115/21 71/116/21
f 71/116/21 74/117/21 78/106/21
f 83/118/21 84/119/21 73/120/21
f 82/121/49 84/122/50 81/123/50
f 80/124/51 83/125/52 79/126/52
f 82/121/49 73/96/44 85/127/49
f 80/124/51 84/122/50 86/128/51
f 79/126/52 72/95/45 78/129/45
f 87/130/53 60/131/54 28/31/22
f 76/101/47 70/132/55 87/130/53
f 76/101/47 63/133/56 65/134/57
f 75/98/46 63/133/56 77/105/48
f 75/98/46 62/135/58 66/136/59
f 28/31/22 62/135/58 27/29/20
f 28/31/22 24/102/21 87/130/53
f 88/137/16 57/138/16 58/139/16
f 89/140/16 57/138/16 90/141/16
f 91/142/16 47/143/16 89/140/16
f 91/142/16 59/144/16 56/145/16
f 52/146/16 55/147/16 59/144/16
f 54/148/16 58/139/16 55/147/16
f 92/149/60 93/150/61 94/151/62
f 89/152/63 95/153/64 91/154/65
f 88/155/66 96/156/67 90/157/68
f 54/75/38 92/158/60 88/159/66
f 91/160/65 97/161/69 52/73/36
f 90/157/68 98/162/70 89/152/63
f 99/163/71 100/164/5 93/165/61
f 95/166/64 99/167/71 97/168/69
f 96/169/67 101/170/72 98/171/70
f 97/168/69 93/150/61 53/172/37
f 95/173/64 101/170/72 102/174/73
f 92/175/60 103/176/74 96/169/67
f 104/177/16 105/178/16 106/179/16
f 101/180/72 105/181/3 102/182/73
f 94/183/62 107/184/9 103/185/74
f 93/165/61 108/186/7 94/187/62
f 102/188/73 104/189/2 99/163/71
f 103/185/74 106/190/12 101/180/72
f 22/24/16 30/33/24 40/191/16
f 40/191/16 31/34/25 41/192/16
f 32/35/26 41/192/16 31/34/25
f 33/36/27 43/193/16 32/35/26
f 33/36/27 20/22/16 44/194/16
f 1/1/1 4/4/4 2/2/2
f 4/4/4 6/6/6 5/5/5
f 6/6/6 8/70/8 7/7/7
f 8/8/8 11/12/11 9/9/9
f 8/8/8 50/81/34 10/11/10
f 11/12/11 13/14/13 12/13/12
f 13/14/13 1/72/1 3/15/3
f 14/16/14 29/32/23 15/17/7
f 17/19/15 35/38/29 18/20/3
f 20/22/16 34/37/28 21/23/17
f 23/25/18 14/16/14 16/18/5
f 25/27/19 17/19/15 19/21/12
f 27/29/20 19/104/21 18/30/21
f 29/32/23 25/27/19 26/28/9
f 30/33/24 35/38/29 17/19/15
f 31/34/25 17/19/15 25/27/19
f 32/35/26 25/27/19 29/32/23
f 33/36/27 29/32/23 14/16/14
f 34/37/28 14/16/14 23/25/18
f 21/23/17 23/25/18 35/38/29
f 35/38/29 23/25/18 24/26/2
f 5/39/21 45/64/21 36/40/21
f 2/41/21 36/40/21 37/42/21
f 9/44/21 42/63/21 38/45/21
f 39/47/12 37/195/3 40/48/3
f 42/50/9 39/47/12 41/49/12
f 38/52/7 42/50/9 43/51/9
f 45/54/5 38/196/7 44/55/7
f 36/57/2 45/54/5 20/56/5
f 37/59/3 36/57/2 22/58/2
f 3/43/21 37/42/21 39/61/21
f 12/62/21 39/61/21 42/63/21
f 5/39/21 7/46/21 38/45/21
f 46/65/30 57/79/41 47/66/31
f 4/4/4 46/65/30 48/67/32
f 11/12/11 10/11/10 49/68/33
f 1/1/1 51/78/35 46/65/30
f 6/6/6 48/67/32 50/69/34
f 13/14/13 49/68/33 51/71/35
f 52/73/36 97/161/69 53/74/37
f 10/11/10 59/82/43 55/76/39
f 48/67/32 47/66/31 56/77/40
f 51/78/35 58/197/42 57/79/41
f 51/71/35 49/68/33 55/76/39
f 50/81/34 56/198/40 59/82/43
f 60/83/7 74/97/7 61/84/5
f 63/86/3 67/90/3 64/87/12
f 66/89/2 68/91/2 67/90/3
f 62/85/5 61/84/5 68/91/2
f 65/88/12 64/87/12 69/92/9
f 71/94/44 78/129/45 72/95/45
f 70/93/9 69/92/9 74/97/7
f 75/98/46 77/105/48 15/99/21
f 76/101/47 87/130/53 24/102/21
f 75/98/46 26/100/21 19/104/21
f 76/101/47 16/103/21 15/99/21
f 78/106/21 74/117/21 69/107/21
f 80/109/21 79/108/21 69/107/21
f 80/109/21 64/110/21 67/111/21
f 81/112/21 67/111/21 68/113/21
f 82/114/21 68/113/21 61/115/21
f 71/116/21 61/115/21 74/117/21
f 73/120/21 72/199/21 83/118/21
f 83/118/21 86/200/21 84/119/21
f 84/119/21 85/201/21 73/120/21
f 82/121/49 85/127/49 84/122/50
f 80/124/51 86/128/51 83/125/52
f 82/121/49 71/94/44 73/96/44
f 80/124/51 81/123/50 84/122/50
f 79/126/52 83/125/52 72/95/45
f 87/130/53 70/132/55 60/131/54
f 76/101/47 65/134/57 70/132/55
f 76/101/47 77/105/48 63/133/56
f 75/98/46 66/136/59 63/133/56
f 75/98/46 27/29/20 62/135/58
f 28/31/22 60/131/54 62/135/58
f 28/31/22 18/30/21 24/102/21
f 88/137/16 90/141/16 57/138/16
f 89/140/16 47/143/16 57/138/16
f 91/142/16 56/145/16 47/143/16
f 91/142/16 52/146/16 59/144/16
f 52/146/16 54/148/16 55/147/16
f 54/148/16 88/137/16 58/139/16
f 92/149/60 53/172/37 93/150/61
f 89/152/63 98/162/70 95/153/64
f 88/155/66 92/202/60 96/156/67
f 54/75/38 53/74/37 92/158/60
f 91/160/65 95/203/64 97/161/69
f 90/157/68 96/156/67 98/162/70
f 99/163/71 104/189/2 100/164/5
f 95/166/64 102/204/73 99/167/71
f 96/169/67 103/176/74 101/170/72
f 97/168/69 99/167/71 93/150/61
f 95/173/64 98/171/70 101/170/72
f 92/175/60 94/205/62 103/176/74
f 106/179/16 107/206/16 104/177/16
f 107/206/16 108/207/16 104/177/16
f 108/207/16 100/208/16 104/177/16
f 101/180/72 106/190/12 105/181/3
f 94/183/62 108/209/7 107/184/9
f 93/165/61 100/164/5 108/186/7
f 102/188/73 105/210/3 104/189/2
f 103/185/74 107/184/9 106/190/12
f 22/24/16 21/23/17 30/33/24
f 40/191/16 30/33/24 31/34/25
f 32/35/26 43/193/16 41/192/16
f 33/36/27 44/194/16 43/193/16
f 33/36/27 34/37/28 20/22/16
