o AircraftCannonShell
v -0.250000 0.000000 -0.062500
v 0.250000 0.000000 -0.062500
v 0.250000 -0.054126 -0.031250
v -0.250000 -0.054126 -0.031250
v 0.250000 -0.054127 0.031250
v -0.250000 -0.054127 0.031250
v 0.250000 -0.000000 0.062500
v -0.250000 -0.000000 0.062500
v 0.250000 0.054126 0.031250
v -0.250000 0.054126 0.031250
v 0.392675 -0.036711 0.021195
v 0.392675 -0.000000 0.042390
v 0.250000 0.054127 -0.031250
v -0.250000 0.054127 -0.031250
v -0.292994 -0.031810 0.018365
v -0.292994 -0.031810 -0.018366
v -0.292994 0.000000 -0.036731
v -0.292994 -0.000000 0.036731
v -0.292994 0.031810 0.018366
v -0.292994 0.031810 -0.018365
v 0.392675 -0.036711 -0.021195
v 0.392675 0.000000 -0.042390
v 0.479889 0.000000 -0.014825
v 0.479889 -0.012839 -0.007413
v 0.392675 0.036711 -0.021195
v 0.392675 0.036711 0.021195
v 0.499894 0.000000 0.000000
v 0.479889 0.012839 0.007413
v 0.479889 -0.000000 0.014825
v 0.479889 0.012839 -0.007413
v 0.479889 -0.012839 0.007413
vt 0.974611 0.979774
vt 0.962868 0.979788
vt 0.962750 0.978342
vt 0.974604 0.978264
vt 0.986668 0.995434
vt 0.974643 0.995400
vt 0.974769 0.993886
vt 0.986673 0.993931
vt 0.974767 0.992413
vt 0.986673 0.992399
vt 0.974647 0.990947
vt 0.986665 0.990868
vt 0.971464 0.993647
vt 0.971478 0.992661
vt 0.974607 0.982767
vt 0.962746 0.982734
vt 0.962870 0.981241
vt 0.974611 0.981285
vt 0.992531 0.996522
vt 0.990099 0.995234
vt 0.991608 0.994317
vt 0.992411 0.994798
vt 0.988928 0.980291
vt 0.991362 0.981696
vt 0.991362 0.984507
vt 0.988928 0.985912
vt 0.986494 0.984507
vt 0.986494 0.981696
vt 0.992365 0.991207
vt 0.994725 0.992593
vt 0.993221 0.993476
vt 0.992460 0.992945
vt 0.994725 0.995192
vt 0.993275 0.994386
vt 0.990086 0.992531
vt 0.991572 0.993359
vt 0.959408 0.979076
vt 0.959624 0.980032
vt 0.957638 0.980356
vt 0.957487 0.980039
vt 0.959611 0.981005
vt 0.971259 0.991691
vt 0.971219 0.994634
vt 0.959368 0.981979
vt 0.968894 0.993145
vt 0.969311 0.992668
vt 0.969464 0.992989
vt 0.957631 0.980681
vt 0.969298 0.993624
vt 0.969457 0.993319
vt 0.957474 0.980982
vt 0.957075 0.980510
vn 0.0000 0.0000 -1.0000
vn 0.0685 0.0000 -0.9977
vn 0.0685 -0.8640 -0.4988
vn 0.0000 -0.8660 -0.5000
vn 0.0685 -0.8640 0.4988
vn 0.0000 -0.8660 0.5000
vn 0.0685 -0.0000 0.9977
vn 0.0000 -0.0000 1.0000
vn 0.0685 0.8640 0.4988
vn 0.0000 0.8660 0.5000
vn 0.2157 -0.8456 0.4882
vn 0.2157 0.0000 0.9765
vn 0.0685 0.8640 -0.4988
vn 0.0000 0.8660 -0.5000
vn -0.5141 -0.7428 -0.4289
vn -0.5141 -0.7428 0.4289
vn -1.0000 0.0000 0.0000
vn -0.5141 0.7428 0.4289
vn -0.5141 0.7428 -0.4289
vn -0.5141 0.0000 -0.8577
vn -0.5141 -0.0000 0.8577
vn 0.2157 -0.8456 -0.4882
vn 0.2157 0.0000 -0.9765
vn 0.4345 0.0000 -0.9007
vn 0.4345 -0.7800 -0.4504
vn 0.2157 0.8456 -0.4882
vn 0.2157 0.8456 0.4882
vn 1.0000 0.0000 0.0000
vn 0.4345 0.7800 0.4503
vn 0.4345 0.0000 0.9007
vn 0.4345 0.7800 -0.4503
vn 0.4345 -0.7800 0.4504
s 1
f 1/1/1 2/2/2 3/3/3 4/4/4
f 4/5/4 3/6/3 5/7/5 6/8/6
f 6/8/6 5/7/5 7/9/7 8/10/8
f 8/10/8 7/9/7 9/11/9 10/12/10
f 7/9/7 5/7/5 11/13/11 12/14/12
f 10/15/10 9/16/9 13/17/13 14/18/14
f 14/18/14 13/17/13 2/2/2 1/1/1
f 4/19/15 6/20/16 15/21/16 16/22/15
f 17/23/17 16/24/17 15/25/17 18/26/17 19/27/17 20/28/17
f 10/29/18 14/30/19 20/31/19 19/32/18
f 1/33/20 4/19/15 16/22/15 17/34/20
f 6/20/16 8/35/21 18/36/21 15/21/16
f 14/30/19 1/33/20 17/34/20 20/31/19
f 8/35/21 10/29/18 19/32/18 18/36/21
f 21/37/22 22/38/23 23/39/24 24/40/25
f 2/2/2 13/17/13 25/41/26 22/38/23
f 9/11/9 7/9/7 12/14/12 26/42/27
f 5/7/5 3/6/3 21/43/22 11/13/11
f 13/17/13 9/16/9 26/44/27 25/41/26
f 3/3/3 2/2/2 22/38/23 21/37/22
f 27/45/28 28/46/29 29/47/30
f 22/38/23 25/41/26 30/48/31 23/39/24
f 26/42/27 12/14/12 29/47/30 28/46/29
f 11/13/11 21/43/22 24/49/25 31/50/32
f 25/41/26 26/44/27 28/51/29 30/48/31
f 12/14/12 11/13/11 31/50/32 29/47/30
f 30/48/31 27/52/28 23/39/24
f 24/49/25 27/45/28 31/50/32
f 28/51/29 27/52/28 30/48/31
f 23/39/24 27/52/28 24/40/25
f 31/50/32 27/45/28 29/47/30