o HowitzerCannonShell
v -0.593939 0.106996 0.000000
v 0.286992 0.106996 0.000000
v 0.286992 0.075658 -0.075658
v -0.593939 0.075658 -0.075658
v -0.646773 0.073186 0.000000
v -0.646773 0.051750 0.051750
v -0.593939 0.075658 0.075658
v 0.286992 0.075658 0.075658
v -0.646773 -0.000000 0.073186
v -0.593939 -0.000000 0.106996
v 0.286992 -0.000000 0.106996
v -0.646773 -0.051750 0.051750
v -0.593939 -0.075658 0.075658
v 0.286992 -0.075658 0.075658
v -0.646773 -0.073186 -0.000000
v -0.593939 -0.106996 -0.000000
v 0.286992 -0.106996 -0.000000
v -0.646773 -0.051750 -0.051750
v -0.593939 -0.075658 -0.075658
v 0.286992 -0.075658 -0.075658
v -0.646773 0.000000 -0.073186
v -0.593939 0.000000 -0.106996
v 0.286992 0.000000 -0.106996
v -0.646773 0.051750 -0.051750
v 0.365229 0.086667 0.000000
v 0.365229 0.061283 -0.061283
v 0.365229 0.061283 0.061283
v 0.365229 -0.000000 0.086667
v 0.365229 -0.061283 0.061283
v 0.365229 -0.086667 -0.000000
v 0.365229 -0.061283 -0.061283
v 0.365229 0.000000 -0.086667
v 0.425985 0.060840 0.000000
v 0.425985 0.043021 -0.043021
v 0.425985 0.043021 0.043021
v 0.425985 -0.000000 0.060840
v 0.425985 -0.043021 0.043021
v 0.425985 -0.060840 -0.000000
v 0.425985 -0.043021 -0.043021
v 0.425985 0.000000 -0.060840
v 0.478740 0.028352 0.000000
v 0.478740 0.020048 -0.020047
v 0.478740 0.020047 0.020048
v 0.478740 -0.000000 0.028352
v 0.478740 -0.020048 0.020047
v 0.478740 -0.028352 -0.000000
v 0.478740 -0.020047 -0.020048
v 0.478740 0.000000 -0.028352
v 0.510356 0.000000 0.000000
vt 0.993765 0.985886
vt 0.977223 0.985839
vt 0.977494 0.984310
vt 0.993769 0.984348
vt 0.958135 0.987225
vt 0.959313 0.986819
vt 0.959988 0.987433
vt 0.959453 0.988565
vt 0.993761 0.987474
vt 0.977464 0.987689
vt 0.977143 0.986131
vt 0.993743 0.985892
vt 0.960908 0.987378
vt 0.961340 0.988561
vt 0.993769 0.989054
vt 0.977577 0.989145
vt 0.961528 0.986684
vt 0.962671 0.987219
vt 0.993769 0.990632
vt 0.977494 0.990595
vt 0.961485 0.985754
vt 0.962671 0.985331
vt 0.993765 0.992170
vt 0.977223 0.992123
vt 0.960806 0.985131
vt 0.961340 0.983997
vt 0.993761 0.981190
vt 0.977464 0.981405
vt 0.977143 0.979847
vt 0.993743 0.979607
vt 0.959894 0.985181
vt 0.959459 0.984009
vt 0.993769 0.982769
vt 0.977577 0.982860
vt 0.959299 0.985890
vt 0.958154 0.985363
vt 0.975628 0.985273
vt 0.976056 0.984041
vt 0.976028 0.987959
vt 0.975570 0.986743
vt 0.976179 0.989140
vt 0.976056 0.990325
vt 0.975628 0.991557
vt 0.976028 0.981675
vt 0.975570 0.980458
vt 0.976179 0.982856
vt 0.974440 0.984529
vt 0.974876 0.983705
vt 0.974863 0.988300
vt 0.974419 0.987496
vt 0.975009 0.989142
vt 0.974876 0.989990
vt 0.974440 0.990813
vt 0.974863 0.982015
vt 0.974419 0.981211
vt 0.975009 0.982857
vt 0.973507 0.983607
vt 0.973781 0.983257
vt 0.973782 0.988737
vt 0.973518 0.988396
vt 0.973871 0.989138
vt 0.973781 0.989542
vt 0.973507 0.989891
vt 0.973782 0.982452
vt 0.973518 0.982112
vt 0.973871 0.982853
vt 0.973027 0.982850
vt 0.973027 0.989134
vt 0.964463 0.986523
vt 0.963417 0.986523
vt 0.962677 0.985783
vt 0.962677 0.984737
vt 0.963417 0.983997
vt 0.964463 0.983997
vt 0.965202 0.984737
vt 0.965202 0.985783
vn 0.0200 0.9998 -0.0000
vn 0.1270 0.9919 0.0000
vn 0.1271 0.7014 -0.7014
vn 0.0133 0.6965 -0.7175
vn -0.5553 0.8316 -0.0000
vn -0.4938 0.8684 0.0446
vn -0.5503 0.5411 0.6359
vn -0.5512 0.5990 0.5808
vn 0.0133 0.6965 0.7175
vn 0.1271 0.7014 0.7014
vn -0.5504 -0.0670 0.8322
vn -0.5512 0.0129 0.8343
vn 0.0133 -0.0149 0.9998
vn 0.1270 -0.0000 0.9919
vn -0.5503 -0.6359 0.5411
vn -0.5512 -0.5808 0.5990
vn 0.0133 -0.7175 0.6965
vn 0.1271 -0.7014 0.7014
vn -0.5504 -0.8322 -0.0670
vn -0.5512 -0.8343 0.0129
vn 0.0133 -0.9998 -0.0149
vn 0.1270 -0.9919 -0.0000
vn -0.5503 -0.5411 -0.6359
vn -0.5512 -0.5990 -0.5808
vn 0.0133 -0.6965 -0.7175
vn 0.1271 -0.7014 -0.7014
vn -0.5504 0.0670 -0.8322
vn -0.5512 -0.0129 -0.8343
vn 0.0133 0.0149 -0.9998
vn 0.1270 0.0000 -0.9919
vn -0.5503 0.6359 -0.5411
vn -0.5512 0.5990 -0.5808
vn 0.3224 0.9466 0.0000
vn 0.3225 0.6693 -0.6693
vn 0.3225 0.6693 0.6693
vn 0.3225 0.0000 0.9466
vn 0.3225 -0.6693 0.6693
vn 0.3224 -0.9466 -0.0000
vn 0.3225 -0.6693 -0.6693
vn 0.3225 -0.0000 -0.9466
vn 0.4594 0.8882 0.0000
vn 0.4594 0.6281 -0.6281
vn 0.4594 0.6281 0.6281
vn 0.4594 -0.0000 0.8882
vn 0.4594 -0.6281 0.6281
vn 0.4594 -0.8882 -0.0000
vn 0.4594 -0.6281 -0.6281
vn 0.4594 0.0000 -0.8882
vn 0.5989 0.8008 -0.0000
vn 0.5989 0.5663 -0.5663
vn 0.5989 0.5663 0.5663
vn 0.5989 0.0000 0.8008
vn 0.5989 -0.5663 0.5663
vn 0.5989 -0.8008 0.0000
vn 0.5989 -0.5663 -0.5663
vn 0.5989 -0.0000 -0.8008
vn 1.0000 0.0000 -0.0000
vn -0.9982 -0.0539 -0.0270
vn -0.9982 -0.0557 -0.0231
vn -0.9982 -0.0557 0.0231
vn -0.9982 -0.0231 0.0557
vn -0.9982 0.0231 0.0557
vn -0.9982 0.0557 0.0231
vn -0.9982 0.0557 -0.0231
vn -0.9982 0.0231 -0.0557
s 1
f 1/1/1 2/2/2 3/3/3 4/4/4
f 1/5/5 5/6/6 6/7/7 7/8/8
f 7/9/9 8/10/10 2/11/2 1/12/1
f 7/8/8 6/7/7 9/13/11 10/14/12
f 10/15/13 11/16/14 8/10/10 7/9/9
f 10/14/12 9/13/11 12/17/15 13/18/16
f 13/19/17 14/20/18 11/16/14 10/15/13
f 13/18/16 12/17/15 15/21/19 16/22/20
f 16/23/21 17/24/22 14/20/18 13/19/17
f 16/22/20 15/21/19 18/25/23 19/26/24
f 19/27/25 20/28/26 17/29/22 16/30/21
f 19/26/24 18/25/23 21/31/27 22/32/28
f 22/33/29 23/34/30 20/28/26 19/27/25
f 22/32/28 21/31/27 24/35/31 4/36/32
f 4/4/4 3/3/3 23/34/30 22/33/29
f 4/36/32 24/35/31 5/6/6 1/5/5
f 2/2/2 25/37/33 26/38/34 3/3/3
f 8/10/10 27/39/35 25/40/33 2/11/2
f 11/16/14 28/41/36 27/39/35 8/10/10
f 14/20/18 29/42/37 28/41/36 11/16/14
f 17/24/22 30/43/38 29/42/37 14/20/18
f 20/28/26 31/44/39 30/45/38 17/29/22
f 23/34/30 32/46/40 31/44/39 20/28/26
f 3/3/3 26/38/34 32/46/40 23/34/30
f 25/37/33 33/47/41 34/48/42 26/38/34
f 27/39/35 35/49/43 33/50/41 25/40/33
f 28/41/36 36/51/44 35/49/43 27/39/35
f 29/42/37 37/52/45 36/51/44 28/41/36
f 30/43/38 38/53/46 37/52/45 29/42/37
f 31/44/39 39/54/47 38/55/46 30/45/38
f 32/46/40 40/56/48 39/54/47 31/44/39
f 26/38/34 34/48/42 40/56/48 32/46/40
f 33/47/41 41/57/49 42/58/50 34/48/42
f 35/49/43 43/59/51 41/60/49 33/50/41
f 36/51/44 44/61/52 43/59/51 35/49/43
f 37/52/45 45/62/53 44/61/52 36/51/44
f 38/53/46 46/63/54 45/62/53 37/52/45
f 39/54/47 47/64/55 46/65/54 38/55/46
f 40/56/48 48/66/56 47/64/55 39/54/47
f 34/48/42 42/58/50 48/66/56 40/56/48
f 41/57/49 49/67/57 42/58/50
f 43/59/51 49/68/57 41/60/49
f 44/61/52 49/68/57 43/59/51
f 45/62/53 49/68/57 44/61/52
f 46/63/54 49/68/57 45/62/53
f 47/64/55 49/67/57 46/65/54
f 48/66/56 49/67/57 47/64/55
f 42/58/50 49/67/57 48/66/56
f 5/69/58 24/70/59 21/71/60 18/72/61 15/73/62 12/74/63 9/75/64 6/76/65