# Blender v2.90.1 OBJ File: ''
# www.blender.org
mtllib M1AbramsCannonShell.mtl
o Cylinder1.004
v -2.665246 0.326196 0.000000
v 0.512742 0.326196 0.000000
v 0.512742 0.230655 -0.230655
v -2.665246 0.230655 -0.230655
v -2.826319 0.223118 0.000000
v -2.826319 0.157768 0.157768
v -2.665246 0.230655 0.230655
v 0.512742 0.230655 0.230655
v -2.826319 -0.000000 0.223118
v -2.665246 -0.000000 0.326196
v 0.512742 -0.000000 0.326196
v -2.826319 -0.157768 0.157768
v -2.665246 -0.230655 0.230655
v 0.512742 -0.230655 0.230655
v -2.826319 -0.223118 -0.000000
v -2.665246 -0.326196 -0.000000
v 0.512742 -0.326196 -0.000000
v -2.826319 -0.157768 -0.157768
v -2.665246 -0.230655 -0.230655
v 0.512742 -0.230655 -0.230655
v -2.826319 0.000000 -0.223118
v -2.665246 0.000000 -0.326196
v 0.512742 0.000000 -0.326196
v -2.826319 0.157768 -0.157768
v 0.999232 0.264219 0.000000
v 0.999232 0.186831 -0.186831
v 0.999232 0.186831 0.186831
v 0.999232 -0.000000 0.264219
v 0.999232 -0.186831 0.186831
v 0.999232 -0.264219 -0.000000
v 0.999232 -0.186831 -0.186831
v 0.999232 0.000000 -0.264219
v 1.302084 0.185482 0.000000
v 1.302084 0.131155 -0.131155
v 1.302084 0.131155 0.131155
v 1.302084 -0.000000 0.185482
v 1.302084 -0.131155 0.131155
v 1.302084 -0.185482 -0.000000
v 1.302084 -0.131155 -0.131155
v 1.302084 0.000000 -0.185482
v 1.544297 0.086434 0.000000
v 1.544297 0.061118 -0.061118
v 1.544297 0.061118 0.061118
v 1.544297 -0.000000 0.086434
v 1.544297 -0.061118 0.061118
v 1.544297 -0.086434 -0.000000
v 1.544297 -0.061118 -0.061118
v 1.544297 0.000000 -0.086434
v 1.687843 -0.000000 -0.000000
vt 0.993447 0.986262
vt 0.975824 0.986245
vt 0.975942 0.984873
vt 0.993448 0.984878
vt 0.957347 0.989114
vt 0.957829 0.988098
vt 0.958649 0.988040
vt 0.959044 0.989102
vt 0.993445 0.987673
vt 0.975931 0.987765
vt 0.975799 0.986367
vt 0.959209 0.987413
vt 0.960238 0.987894
vt 0.993448 0.989077
vt 0.975980 0.989123
vt 0.959170 0.986575
vt 0.960238 0.986194
vt 0.993448 0.990480
vt 0.975942 0.990475
vt 0.958558 0.986013
vt 0.959040 0.984992
vt 0.993447 0.991865
vt 0.975824 0.991847
vt 0.957737 0.986058
vt 0.957344 0.985002
vt 0.993445 0.982071
vt 0.975931 0.982162
vt 0.975799 0.980764
vt 0.993439 0.980666
vt 0.957203 0.986696
vt 0.956169 0.986225
vt 0.993448 0.983474
vt 0.975980 0.983521
vt 0.957227 0.987539
vt 0.956163 0.987910
vt 0.973079 0.985700
vt 0.973322 0.984601
vt 0.973301 0.988045
vt 0.973037 0.986941
vt 0.973394 0.989125
vt 0.973322 0.990203
vt 0.973079 0.991303
vt 0.973301 0.982443
vt 0.973037 0.981339
vt 0.973394 0.983522
vt 0.971399 0.985030
vt 0.971672 0.984284
vt 0.971655 0.988376
vt 0.971367 0.987635
vt 0.971754 0.989130
vt 0.971672 0.989886
vt 0.971399 0.990633
vt 0.971655 0.982774
vt 0.971367 0.982033
vt 0.971754 0.983528
vt 0.970132 0.984216
vt 0.970312 0.983886
vt 0.970306 0.988783
vt 0.970124 0.988462
vt 0.970369 0.989134
vt 0.970312 0.989488
vt 0.970132 0.989818
vt 0.970306 0.983180
vt 0.970124 0.982859
vt 0.970369 0.983532
vt 0.969436 0.983538
vt 0.969436 0.989141
vt 0.960911 0.987267
vt 0.960244 0.986600
vt 0.960244 0.985658
vt 0.960911 0.984992
vt 0.961853 0.984992
vt 0.962519 0.985658
vt 0.962519 0.986600
vt 0.961853 0.987267
vn 0.0200 0.9998 0.0000
vn 0.0633 0.9980 0.0000
vn 0.0632 0.7057 -0.7057
vn 0.0133 0.6965 -0.7175
vn -0.5553 0.8316 -0.0000
vn -0.4938 0.8684 0.0446
vn -0.5504 0.5411 0.6359
vn -0.5512 0.5990 0.5808
vn 0.0133 0.6965 0.7175
vn 0.0632 0.7057 0.7057
vn -0.5503 -0.0670 0.8322
vn -0.5512 0.0129 0.8342
vn 0.0133 -0.0149 0.9998
vn 0.0633 -0.0000 0.9980
vn -0.5503 -0.6359 0.5411
vn -0.5512 -0.5808 0.5990
vn 0.0133 -0.7175 0.6965
vn 0.0633 -0.7057 0.7057
vn -0.5503 -0.8322 -0.0670
vn -0.5512 -0.8342 0.0129
vn 0.0133 -0.9998 -0.0149
vn 0.0633 -0.9980 -0.0000
vn -0.5503 -0.5411 -0.6359
vn -0.5512 -0.5990 -0.5808
vn 0.0133 -0.6965 -0.7175
vn 0.0632 -0.7057 -0.7057
vn -0.5503 0.0670 -0.8322
vn -0.5512 -0.0129 -0.8342
vn 0.0133 0.0149 -0.9998
vn 0.0633 0.0000 -0.9980
vn -0.5503 0.6359 -0.5411
vn -0.5512 0.5990 -0.5808
vn 0.1895 0.9819 0.0000
vn 0.1895 0.6943 -0.6943
vn 0.1895 0.6943 0.6943
vn 0.1895 -0.0000 0.9819
vn 0.1895 -0.6943 0.6943
vn 0.1895 -0.9819 -0.0000
vn 0.1895 -0.6943 -0.6943
vn 0.1895 0.0000 -0.9819
vn 0.3160 0.9488 0.0000
vn 0.3159 0.6709 -0.6709
vn 0.3159 0.6709 0.6709
vn 0.3160 -0.0000 0.9488
vn 0.3159 -0.6709 0.6709
vn 0.3160 -0.9488 -0.0000
vn 0.3159 -0.6709 -0.6709
vn 0.3160 0.0000 -0.9488
vn 0.4488 0.8936 -0.0000
vn 0.4488 0.6319 -0.6319
vn 0.4488 0.6319 0.6319
vn 0.4488 0.0000 0.8936
vn 0.4488 -0.6319 0.6319
vn 0.4488 -0.8936 0.0000
vn 0.4488 -0.6319 -0.6319
vn 0.4488 -0.0000 -0.8936
vn 1.0000 -0.0000 -0.0000
vn -0.9982 -0.0539 -0.0270
vn -0.9982 -0.0557 -0.0231
vn -0.9982 -0.0557 0.0231
vn -0.9982 -0.0231 0.0557
vn -0.9982 0.0231 0.0557
vn -0.9982 0.0557 0.0231
vn -0.9982 0.0557 -0.0231
vn -0.9982 0.0231 -0.0557
usemtl default.004
s 1
f 1/1/1 2/2/2 3/3/3 4/4/4
f 1/5/5 5/6/6 6/7/7 7/8/8
f 7/9/9 8/10/10 2/11/2 1/1/1
f 7/8/8 6/7/7 9/12/11 10/13/12
f 10/14/13 11/15/14 8/10/10 7/9/9
f 10/13/12 9/12/11 12/16/15 13/17/16
f 13/18/17 14/19/18 11/15/14 10/14/13
f 13/17/16 12/16/15 15/20/19 16/21/20
f 16/22/21 17/23/22 14/19/18 13/18/17
f 16/21/20 15/20/19 18/24/23 19/25/24
f 19/26/25 20/27/26 17/28/22 16/29/21
f 19/25/24 18/24/23 21/30/27 22/31/28
f 22/32/29 23/33/30 20/27/26 19/26/25
f 22/31/28 21/30/27 24/34/31 4/35/32
f 4/4/4 3/3/3 23/33/30 22/32/29
f 4/35/32 24/34/31 5/6/6 1/5/5
f 2/2/2 25/36/33 26/37/34 3/3/3
f 8/10/10 27/38/35 25/39/33 2/11/2
f 11/15/14 28/40/36 27/38/35 8/10/10
f 14/19/18 29/41/37 28/40/36 11/15/14
f 17/23/22 30/42/38 29/41/37 14/19/18
f 20/27/26 31/43/39 30/44/38 17/28/22
f 23/33/30 32/45/40 31/43/39 20/27/26
f 3/3/3 26/37/34 32/45/40 23/33/30
f 25/36/33 33/46/41 34/47/42 26/37/34
f 27/38/35 35/48/43 33/49/41 25/39/33
f 28/40/36 36/50/44 35/48/43 27/38/35
f 29/41/37 37/51/45 36/50/44 28/40/36
f 30/42/38 38/52/46 37/51/45 29/41/37
f 31/43/39 39/53/47 38/54/46 30/44/38
f 32/45/40 40/55/48 39/53/47 31/43/39
f 26/37/34 34/47/42 40/55/48 32/45/40
f 33/46/41 41/56/49 42/57/50 34/47/42
f 35/48/43 43/58/51 41/59/49 33/49/41
f 36/50/44 44/60/52 43/58/51 35/48/43
f 37/51/45 45/61/53 44/60/52 36/50/44
f 38/52/46 46/62/54 45/61/53 37/51/45
f 39/53/47 47/63/55 46/64/54 38/54/46
f 40/55/48 48/65/56 47/63/55 39/53/47
f 34/47/42 42/57/50 48/65/56 40/55/48
f 41/56/49 49/66/57 42/57/50
f 43/58/51 49/67/57 41/59/49
f 44/60/52 49/67/57 43/58/51
f 45/61/53 49/67/57 44/60/52
f 46/62/54 49/67/57 45/61/53
f 47/63/55 49/66/57 46/64/54
f 48/65/56 49/66/57 47/63/55
f 42/57/50 49/66/57 48/65/56
f 5/68/58 24/69/59 21/70/60 18/71/61 15/72/62 12/73/63 9/74/64 6/75/65
