o RailgunCannonShell
v -1.189107 0.114597 0.000000
v 0.095077 0.114597 0.000000
v 0.095077 0.081032 -0.081032
v -1.189107 0.081032 -0.081032
v -1.245694 0.078384 0.000000
v -1.245694 0.055426 0.055426
v -1.189107 0.081032 0.081032
v 0.095077 0.081032 0.081032
v -1.245694 -0.000000 0.078384
v -1.189107 -0.000000 0.114597
v 0.095077 -0.000000 0.114597
v -1.245694 -0.055426 0.055426
v -1.189107 -0.081032 0.081032
v 0.095077 -0.081032 0.081032
v -1.245694 -0.078384 -0.000000
v -1.189107 -0.114597 -0.000000
v 0.095077 -0.114597 -0.000000
v -1.245694 -0.055426 -0.055426
v -1.189107 -0.081032 -0.081032
v 0.095077 -0.081032 -0.081032
v -1.245694 0.000000 -0.078384
v -1.189107 0.000000 -0.114597
v 0.095077 0.000000 -0.114597
v -1.245694 0.055426 -0.055426
v 0.292785 0.092823 0.000000
v 0.292785 0.065636 -0.065636
v 0.292785 0.065636 0.065636
v 0.292785 -0.000000 0.092823
v 0.292785 -0.065636 0.065636
v 0.292785 -0.092823 -0.000000
v 0.292785 -0.065636 -0.065636
v 0.292785 0.000000 -0.092823
v 0.421331 0.065162 0.000000
v 0.421331 0.046077 -0.046076
v 0.421331 0.046076 0.046077
v 0.421331 -0.000000 0.065162
v 0.421331 -0.046077 0.046076
v 0.421331 -0.065162 -0.000000
v 0.421331 -0.046076 -0.046077
v 0.421331 0.000000 -0.065162
v 0.513719 0.030366 0.000000
v 0.513719 0.021472 -0.021472
v 0.513719 0.021472 0.021472
v 0.513719 -0.000000 0.030366
v 0.513719 -0.021472 0.021472
v 0.513719 -0.030366 -0.000000
v 0.513719 -0.021472 -0.021472
v 0.513719 0.000000 -0.030366
v 0.571120 0.000000 0.000000
vt 0.989206 0.984575
vt 0.975672 0.984566
vt 0.975738 0.983648
vt 0.989207 0.983651
vt 0.958849 0.987577
vt 0.959172 0.986896
vt 0.959725 0.986863
vt 0.959985 0.987575
vt 0.989205 0.985516
vt 0.975733 0.985564
vt 0.960099 0.986445
vt 0.960787 0.986767
vt 0.989207 0.986451
vt 0.975759 0.986476
vt 0.960073 0.985885
vt 0.960787 0.985630
vt 0.989207 0.987387
vt 0.975738 0.987384
vt 0.959664 0.985510
vt 0.959986 0.984827
vt 0.989206 0.988311
vt 0.975672 0.988302
vt 0.959115 0.985540
vt 0.958853 0.984834
vt 0.989205 0.981780
vt 0.975733 0.981828
vt 0.975660 0.980896
vt 0.989203 0.980844
vt 0.958757 0.985967
vt 0.958067 0.985649
vt 0.989207 0.982715
vt 0.975759 0.982740
vt 0.958765 0.986526
vt 0.958056 0.986771
vt 0.973562 0.984207
vt 0.973701 0.983470
vt 0.973689 0.985749
vt 0.973539 0.985007
vt 0.973743 0.986478
vt 0.973701 0.987206
vt 0.973562 0.987942
vt 0.973689 0.982013
vt 0.973539 0.981271
vt 0.973743 0.982742
vt 0.972215 0.983749
vt 0.972379 0.983249
vt 0.972367 0.985979
vt 0.972194 0.985483
vt 0.972428 0.986481
vt 0.972379 0.986985
vt 0.972215 0.987485
vt 0.972367 0.982244
vt 0.972194 0.981747
vt 0.972428 0.982746
vt 0.971289 0.983211
vt 0.971399 0.982987
vt 0.971395 0.986249
vt 0.971284 0.986030
vt 0.971434 0.986485
vt 0.971399 0.986723
vt 0.971289 0.986947
vt 0.971395 0.982513
vt 0.971284 0.982294
vt 0.971434 0.982750
vt 0.970748 0.982754
vt 0.970748 0.986490
vt 0.962312 0.985273
vt 0.962312 0.985902
vt 0.961866 0.986348
vt 0.961236 0.986348
vt 0.960791 0.985902
vt 0.960791 0.985273
vt 0.961236 0.984827
vt 0.961866 0.984827
vn 0.0200 0.9998 -0.0000
vn 0.0548 0.9985 0.0000
vn 0.0544 0.7061 -0.7061
vn 0.0133 0.6965 -0.7175
vn -0.5553 0.8316 -0.0000
vn -0.4938 0.8684 0.0446
vn -0.5503 0.5411 0.6359
vn -0.5512 0.5990 0.5808
vn 0.0133 0.6965 0.7175
vn 0.0544 0.7061 0.7061
vn -0.5503 -0.0670 0.8322
vn -0.5512 0.0129 0.8343
vn 0.0133 -0.0149 0.9998
vn 0.0548 -0.0000 0.9985
vn -0.5503 -0.6359 0.5411
vn -0.5512 -0.5808 0.5990
vn 0.0133 -0.7175 0.6965
vn 0.0544 -0.7061 0.7061
vn -0.5503 -0.8322 -0.0670
vn -0.5512 -0.8343 0.0129
vn 0.0133 -0.9998 -0.0149
vn 0.0548 -0.9985 -0.0000
vn -0.5503 -0.5411 -0.6359
vn -0.5512 -0.5990 -0.5808
vn 0.0133 -0.6965 -0.7175
vn 0.0544 -0.7061 -0.7061
vn -0.5503 0.0670 -0.8322
vn -0.5512 -0.0129 -0.8343
vn 0.0133 0.0149 -0.9998
vn 0.0548 0.0000 -0.9985
vn -0.5503 0.6359 -0.5411
vn -0.5512 0.5990 -0.5808
vn 0.1602 0.9871 0.0000
vn 0.1602 0.6980 -0.6980
vn 0.1602 0.6980 0.6980
vn 0.1602 -0.0000 0.9871
vn 0.1602 -0.6980 0.6980
vn 0.1602 -0.9871 -0.0000
vn 0.1602 -0.6980 -0.6980
vn 0.1602 0.0000 -0.9871
vn 0.2824 0.9593 0.0000
vn 0.2824 0.6783 -0.6783
vn 0.2824 0.6783 0.6783
vn 0.2824 -0.0000 0.9593
vn 0.2824 -0.6783 0.6783
vn 0.2824 -0.9593 -0.0000
vn 0.2824 -0.6783 -0.6783
vn 0.2824 0.0000 -0.9593
vn 0.4110 0.9116 0.0000
vn 0.4110 0.6446 -0.6446
vn 0.4111 0.6446 0.6446
vn 0.4110 0.0000 0.9116
vn 0.4111 -0.6446 0.6446
vn 0.4110 -0.9116 -0.0000
vn 0.4111 -0.6446 -0.6446
vn 0.4110 -0.0000 -0.9116
vn 1.0000 0.0000 0.0000
vn -0.9982 -0.0539 -0.0270
vn -0.9982 -0.0557 -0.0231
vn -0.9982 -0.0557 0.0231
vn -0.9982 -0.0231 0.0557
vn -0.9982 0.0231 0.0557
vn -0.9982 0.0557 0.0231
vn -0.9982 0.0557 -0.0231
vn -0.9982 0.0231 -0.0557
s 1
f 1/1/1 2/2/2 3/3/3 4/4/4
f 1/5/5 5/6/6 6/7/7 7/8/8
f 7/9/9 8/10/10 2/2/2 1/1/1
f 7/8/8 6/7/7 9/11/11 10/12/12
f 10/13/13 11/14/14 8/10/10 7/9/9
f 10/12/12 9/11/11 12/15/15 13/16/16
f 13/17/17 14/18/18 11/14/14 10/13/13
f 13/16/16 12/15/15 15/19/19 16/20/20
f 16/21/21 17/22/22 14/18/18 13/17/17
f 16/20/20 15/19/19 18/23/23 19/24/24
f 19/25/25 20/26/26 17/27/22 16/28/21
f 19/24/24 18/23/23 21/29/27 22/30/28
f 22/31/29 23/32/30 20/26/26 19/25/25
f 22/30/28 21/29/27 24/33/31 4/34/32
f 4/4/4 3/3/3 23/32/30 22/31/29
f 4/34/32 24/33/31 5/6/6 1/5/5
f 2/2/2 25/35/33 26/36/34 3/3/3
f 8/10/10 27/37/35 25/38/33 2/2/2
f 11/14/14 28/39/36 27/37/35 8/10/10
f 14/18/18 29/40/37 28/39/36 11/14/14
f 17/22/22 30/41/38 29/40/37 14/18/18
f 20/26/26 31/42/39 30/43/38 17/27/22
f 23/32/30 32/44/40 31/42/39 20/26/26
f 3/3/3 26/36/34 32/44/40 23/32/30
f 25/35/33 33/45/41 34/46/42 26/36/34
f 27/37/35 35/47/43 33/48/41 25/38/33
f 28/39/36 36/49/44 35/47/43 27/37/35
f 29/40/37 37/50/45 36/49/44 28/39/36
f 30/41/38 38/51/46 37/50/45 29/40/37
f 31/42/39 39/52/47 38/53/46 30/43/38
f 32/44/40 40/54/48 39/52/47 31/42/39
f 26/36/34 34/46/42 40/54/48 32/44/40
f 33/45/41 41/55/49 42/56/50 34/46/42
f 35/47/43 43/57/51 41/58/49 33/48/41
f 36/49/44 44/59/52 43/57/51 35/47/43
f 37/50/45 45/60/53 44/59/52 36/49/44
f 38/51/46 46/61/54 45/60/53 37/50/45
f 39/52/47 47/62/55 46/63/54 38/53/46
f 40/54/48 48/64/56 47/62/55 39/52/47
f 34/46/42 42/56/50 48/64/56 40/54/48
f 41/55/49 49/65/57 42/56/50
f 43/57/51 49/66/57 41/58/49
f 44/59/52 49/66/57 43/57/51
f 45/60/53 49/66/57 44/59/52
f 46/61/54 49/66/57 45/60/53
f 47/62/55 49/65/57 46/63/54
f 48/64/56 49/65/57 47/62/55
f 42/56/50 49/65/57 48/64/56
f 5/67/58 24/68/59 21/69/60 18/70/61 15/71/62 12/72/63 9/73/64 6/74/65