o SmallSmartCannonShell
v -0.220157 0.026095 0.000000
v 0.127030 0.026095 0.000000
v 0.127030 0.018452 -0.018452
v -0.220157 0.018452 -0.018452
v -0.246484 0.017849 0.000000
v -0.246484 0.012621 0.012621
v -0.220157 0.018452 0.018452
v 0.127030 0.018452 0.018452
v -0.246484 -0.000000 0.017849
v -0.220157 -0.000000 0.026095
v 0.127030 -0.000000 0.026095
v -0.246484 -0.012621 0.012621
v -0.220157 -0.018452 0.018452
v 0.127030 -0.018452 0.018452
v -0.246484 -0.017849 -0.000000
v -0.220157 -0.026095 -0.000000
v 0.127030 -0.026095 -0.000000
v -0.246484 -0.012621 -0.012621
v -0.220157 -0.018452 -0.018452
v 0.127030 -0.018452 -0.018452
v -0.246484 0.000000 -0.017849
v -0.220157 0.000000 -0.026095
v 0.127030 0.000000 -0.026095
v -0.246484 0.012621 -0.012621
v 0.202395 0.021137 0.000000
v 0.202395 0.014946 -0.014946
v 0.202395 0.014946 0.014946
v 0.202395 -0.000000 0.021137
v 0.202395 -0.014946 0.014946
v 0.202395 -0.021137 -0.000000
v 0.202395 -0.014946 -0.014946
v 0.202395 0.000000 -0.021137
v 0.252552 0.014838 0.000000
v 0.252552 0.010492 -0.010492
v 0.252552 0.010492 0.010492
v 0.252552 -0.000000 0.014838
v 0.252552 -0.010492 0.010492
v 0.252552 -0.014838 -0.000000
v 0.252552 -0.010492 -0.010492
v 0.252552 0.000000 -0.014838
v 0.288340 0.006915 0.000000
v 0.288340 0.004889 -0.004889
v 0.288340 0.004889 0.004889
v 0.288340 -0.000000 0.006915
v 0.288340 -0.004889 0.004889
v 0.288340 -0.006915 -0.000000
v 0.288340 -0.004889 -0.004889
v 0.288340 0.000000 -0.006915
v 0.314392 0.000000 0.000000
vt 0.975013 0.986225
vt 0.979361 0.986225
vt 0.979361 0.986736
vt 0.975013 0.986736
vt 0.962843 0.985842
vt 0.963305 0.986349
vt 0.962947 0.986847
vt 0.962319 0.986570
vt 0.981739 0.987743
vt 0.986927 0.987743
vt 0.986927 0.988353
vt 0.981739 0.988353
vt 0.962821 0.987446
vt 0.962135 0.987446
vt 0.981739 0.987133
vt 0.986927 0.987133
vt 0.962947 0.988046
vt 0.962319 0.988324
vt 0.981739 0.986523
vt 0.986927 0.986523
vt 0.963305 0.988544
vt 0.962843 0.989051
vt 0.981739 0.985913
vt 0.986927 0.985913
vt 0.965428 0.985910
vt 0.965922 0.986451
vt 0.965540 0.986982
vt 0.964870 0.986687
vt 0.975013 0.987758
vt 0.979361 0.987758
vt 0.979361 0.988269
vt 0.975013 0.988269
vt 0.965405 0.987622
vt 0.964672 0.987622
vt 0.975013 0.987247
vt 0.979361 0.987247
vt 0.965540 0.988263
vt 0.964870 0.988558
vt 0.965922 0.988794
vt 0.965428 0.989335
vt 0.960019 0.985571
vt 0.960019 0.986854
vt 0.959471 0.986857
vt 0.959331 0.985607
vt 0.971360 0.985986
vt 0.971750 0.986949
vt 0.971356 0.987173
vt 0.970835 0.986236
vt 0.971909 0.985811
vt 0.972158 0.986801
vt 0.972470 0.985714
vt 0.972584 0.986727
vt 0.973027 0.985685
vt 0.973027 0.986724
vt 0.957960 0.985943
vt 0.958442 0.987132
vt 0.957955 0.987408
vt 0.957312 0.986252
vt 0.958639 0.985726
vt 0.958946 0.986949
vt 0.959898 0.987730
vt 0.959510 0.987684
vt 0.972049 0.987550
vt 0.971802 0.987738
vt 0.972322 0.987438
vt 0.972615 0.987396
vt 0.972929 0.987433
vt 0.958812 0.987875
vt 0.958506 0.988106
vt 0.959149 0.987736
vt 0.959665 0.988363
vt 0.959489 0.988320
vt 0.972324 0.987985
vt 0.972217 0.988086
vt 0.972454 0.987925
vt 0.972597 0.987911
vt 0.972741 0.987945
vt 0.959150 0.988411
vt 0.959019 0.988536
vt 0.959312 0.988338
vt 0.959440 0.988815
vt 0.972558 0.988312
vt 0.968928 0.988669
vt 0.967690 0.988669
vt 0.966815 0.987794
vt 0.966815 0.986556
vt 0.967690 0.985681
vt 0.968928 0.985681
vt 0.969803 0.986556
vt 0.969803 0.987794
vn 0.0200 0.9998 -0.0000
vn 0.0333 0.9994 0.0000
vn 0.0337 0.7067 -0.7067
vn 0.0133 0.6965 -0.7175
vn -0.3178 0.9482 0.0000
vn -0.2459 0.9683 0.0433
vn -0.3064 0.6223 0.7204
vn -0.3123 0.6814 0.6619
vn 0.0133 0.6965 0.7175
vn 0.0337 0.7067 0.7067
vn -0.3064 -0.0693 0.9494
vn -0.3124 0.0139 0.9499
vn 0.0133 -0.0149 0.9998
vn 0.0337 -0.0000 0.9994
vn -0.3064 -0.7204 0.6223
vn -0.3123 -0.6619 0.6814
vn 0.0133 -0.7175 0.6964
vn 0.0337 -0.7067 0.7067
vn -0.3064 -0.9494 -0.0693
vn -0.3124 -0.9499 0.0139
vn 0.0133 -0.9998 -0.0149
vn 0.0333 -0.9994 -0.0000
vn -0.3064 -0.6223 -0.7204
vn -0.3123 -0.6814 -0.6619
vn 0.0133 -0.6965 -0.7175
vn 0.0337 -0.7067 -0.7067
vn -0.3064 0.0693 -0.9494
vn -0.3124 -0.0139 -0.9499
vn 0.0133 0.0149 -0.9998
vn 0.0337 0.0000 -0.9994
vn -0.3064 0.7204 -0.6223
vn -0.3123 0.6814 -0.6619
vn 0.0972 0.9953 -0.0001
vn 0.0971 0.7038 -0.7038
vn 0.0972 0.7038 0.7037
vn 0.0972 0.0001 0.9953
vn 0.0972 -0.7037 0.7038
vn 0.0972 -0.9953 0.0001
vn 0.0972 -0.7038 -0.7037
vn 0.0972 -0.0001 -0.9953
vn 0.1757 0.9845 -0.0005
vn 0.1757 0.6961 -0.6961
vn 0.1757 0.6964 0.6958
vn 0.1757 0.0005 0.9844
vn 0.1757 -0.6958 0.6964
vn 0.1757 -0.9845 0.0005
vn 0.1757 -0.6964 -0.6958
vn 0.1757 -0.0005 -0.9844
vn 0.2391 0.9710 -0.0003
vn 0.2391 0.6866 -0.6866
vn 0.2391 0.6868 0.6864
vn 0.2391 0.0003 0.9710
vn 0.2391 -0.6864 0.6868
vn 0.2391 -0.9710 0.0003
vn 0.2391 -0.6868 -0.6864
vn 0.2391 -0.0003 -0.9710
vn 1.0000 -0.0000 -0.0000
vn -0.9982 -0.0539 -0.0270
vn -0.9982 -0.0557 -0.0231
vn -0.9982 -0.0557 0.0231
vn -0.9982 -0.0231 0.0557
vn -0.9982 0.0231 0.0557
vn -0.9982 0.0557 0.0231
vn -0.9982 0.0557 -0.0231
vn -0.9982 0.0231 -0.0557
s 1
f 1/1/1 2/2/2 3/3/3 4/4/4
f 1/5/5 5/6/6 6/7/7 7/8/8
f 7/9/9 8/10/10 2/11/2 1/12/1
f 7/8/8 6/7/7 9/13/11 10/14/12
f 10/15/13 11/16/14 8/10/10 7/9/9
f 10/14/12 9/13/11 12/17/15 13/18/16
f 13/19/17 14/20/18 11/16/14 10/15/13
f 13/18/16 12/17/15 15/21/19 16/22/20
f 16/23/21 17/24/22 14/20/18 13/19/17
f 16/25/20 15/26/19 18/27/23 19/28/24
f 19/29/25 20/30/26 17/31/22 16/32/21
f 19/28/24 18/27/23 21/33/27 22/34/28
f 22/35/29 23/36/30 20/30/26 19/29/25
f 22/34/28 21/33/27 24/37/31 4/38/32
f 4/4/4 3/3/3 23/36/30 22/35/29
f 4/38/32 24/37/31 5/39/6 1/40/5
f 2/41/2 25/42/33 26/43/34 3/44/3
f 8/45/10 27/46/35 25/47/33 2/48/2
f 11/49/14 28/50/36 27/46/35 8/45/10
f 14/51/18 29/52/37 28/50/36 11/49/14
f 17/53/22 30/54/38 29/52/37 14/51/18
f 20/55/26 31/56/39 30/57/38 17/58/22
f 23/59/30 32/60/40 31/56/39 20/55/26
f 3/44/3 26/43/34 32/60/40 23/59/30
f 25/42/33 33/61/41 34/62/42 26/43/34
f 27/46/35 35/63/43 33/64/41 25/47/33
f 28/50/36 36/65/44 35/63/43 27/46/35
f 29/52/37 37/66/45 36/65/44 28/50/36
f 30/54/38 38/67/46 37/66/45 29/52/37
f 31/56/39 39/68/47 38/69/46 30/57/38
f 32/60/40 40/70/48 39/68/47 31/56/39
f 26/43/34 34/62/42 40/70/48 32/60/40
f 33/61/41 41/71/49 42/72/50 34/62/42
f 35/63/43 43/73/51 41/74/49 33/64/41
f 36/65/44 44/75/52 43/73/51 35/63/43
f 37/66/45 45/76/53 44/75/52 36/65/44
f 38/67/46 46/77/54 45/76/53 37/66/45
f 39/68/47 47/78/55 46/79/54 38/69/46
f 40/70/48 48/80/56 47/78/55 39/68/47
f 34/62/42 42/72/50 48/80/56 40/70/48
f 41/71/49 49/81/57 42/72/50
f 43/73/51 49/82/57 41/74/49
f 44/75/52 49/82/57 43/73/51
f 45/76/53 49/82/57 44/75/52
f 46/77/54 49/82/57 45/76/53
f 47/78/55 49/81/57 46/79/54
f 48/80/56 49/81/57 47/78/55
f 42/72/50 49/81/57 48/80/56
f 5/83/58 24/84/59 21/85/60 18/86/61 15/87/62 12/88/63 9/89/64 6/90/65