# Blender v2.91.0 OBJ File: 'AircraftCannonCase.blend'
# www.blender.org
mtllib AircraftCannonCase.mtl
o Cylinder.001
v -0.784294 0.000000 -0.268283
v 0.689877 -0.000000 -0.240366
v -0.784294 -0.232340 -0.134142
v 0.689877 -0.208163 -0.120183
v -0.784294 -0.232340 0.134142
v 0.689877 -0.208163 0.120183
v -0.784294 0.000000 0.268283
v 0.689877 -0.000000 0.240366
v -0.784294 0.232340 0.134142
v 0.689877 0.208163 0.120183
v -0.784294 0.232340 -0.134142
v 0.689877 0.208163 -0.120183
v -0.730325 0.000000 -0.343018
v -0.730325 -0.297062 -0.171509
v -0.730325 -0.297062 0.171509
v -0.730325 0.000000 0.343018
v -0.730325 0.297062 0.171509
v -0.730325 0.297062 -0.171509
v -0.657382 0.000000 -0.343018
v -0.657382 -0.297062 -0.171509
v -0.657382 -0.297062 0.171509
v -0.657382 0.000000 0.343018
v -0.657382 0.297062 0.171509
v -0.657382 0.297062 -0.171509
v -0.657382 -0.257573 -0.148710
v -0.730325 -0.257573 -0.148710
v -0.657382 -0.257573 0.148710
v -0.730325 -0.257573 0.148710
v -0.657382 0.000000 0.297420
v -0.730325 0.000000 0.297420
v -0.657382 0.257573 0.148710
v -0.730325 0.257573 0.148710
v -0.657382 0.257573 -0.148710
v -0.730325 0.257573 -0.148710
v -0.730325 0.000000 -0.297420
v -0.657382 0.000000 -0.297420
v 0.187110 -0.000000 -0.343018
v 0.187110 -0.297062 -0.171509
v 0.187110 -0.297062 0.171509
v 0.187110 0.000000 0.343018
v 0.187110 0.297062 0.171509
v 0.187110 0.297062 -0.171509
v 0.689877 -0.224774 -0.129773
v 0.689877 -0.000000 -0.259546
v 0.689877 -0.224774 0.129773
v 0.689877 -0.000000 0.259546
v 0.689877 0.224774 0.129773
v 0.689877 0.224774 -0.129773
v 0.188741 -0.265366 -0.153209
v 0.188741 -0.000000 -0.306419
v 0.188741 -0.265366 0.153209
v 0.188741 -0.000000 0.306419
v 0.188741 0.265366 0.153209
v 0.188741 0.265366 -0.153209
v -0.624954 -0.265366 -0.153209
v -0.624954 -0.000000 -0.306419
v -0.624954 -0.265366 0.153209
v -0.624954 0.000000 0.306419
v -0.624954 0.265366 0.153209
v -0.624954 0.265366 -0.153209
v -0.784294 0.000000 -0.343018
v -0.784294 -0.297062 -0.171509
v -0.784294 -0.297062 0.171509
v -0.784294 0.000000 0.343018
v -0.784294 0.297062 0.171509
v -0.784294 0.297062 -0.171509
v -0.738133 0.000000 -0.246456
v -0.738133 -0.213437 -0.123228
v -0.738133 -0.213437 0.123228
v -0.738133 0.000000 0.246456
v -0.738133 0.213437 0.123228
v -0.738133 0.213437 -0.123228
v -0.738133 0.000000 -0.268283
v -0.738133 -0.232340 -0.134142
v -0.738133 -0.232340 0.134142
v -0.738133 0.000000 0.268283
v -0.738133 0.232340 0.134142
v -0.738133 0.232340 -0.134142
v -0.762927 0.000000 -0.211673
v -0.762927 -0.183314 -0.105837
v -0.762927 -0.183314 0.105837
v -0.762927 0.000000 0.211673
v -0.762927 0.183315 0.105837
v -0.762927 0.183315 -0.105837
vt 0.449909 0.083524
vt 0.465474 0.084803
vt 0.465474 0.092756
vt 0.449909 0.094035
vt 0.466772 0.100603
vt 0.451625 0.104405
vt 0.428737 0.108321
vt 0.441274 0.111469
vt 0.440200 0.117963
vt 0.427317 0.116905
vt 0.440200 0.124546
vt 0.427317 0.125605
vt 0.798850 0.105147
vt 0.800947 0.089202
vt 0.834694 0.091412
vt 0.832021 0.111739
vt 0.441274 0.131041
vt 0.428737 0.134188
vt 0.451625 0.073154
vt 0.466772 0.076956
vt 0.486163 0.119073
vt 0.493945 0.114980
vt 0.494020 0.116672
vt 0.487646 0.119890
vt 0.533361 0.088090
vt 0.530378 0.088090
vt 0.530378 0.069129
vt 0.533361 0.069129
vt 0.507820 0.011131
vt 0.507820 0.013498
vt 0.492777 0.013498
vt 0.492777 0.011131
vt 0.522863 0.011131
vt 0.522863 0.013498
vt 0.537906 0.011131
vt 0.537906 0.013498
vt 0.533361 0.050168
vt 0.530378 0.050168
vt 0.530378 0.031207
vt 0.533361 0.031207
vt 0.539565 0.113246
vt 0.549054 0.118725
vt 0.547792 0.119453
vt 0.539565 0.114703
vt 0.469364 0.120097
vt 0.469364 0.130434
vt 0.468174 0.129747
vt 0.468174 0.120784
vt 0.539565 0.135159
vt 0.530077 0.129681
vt 0.531338 0.128952
vt 0.539565 0.133702
vt 0.451460 0.130434
vt 0.451461 0.120097
vt 0.452650 0.120784
vt 0.452650 0.129747
vt 0.549054 0.129681
vt 0.547792 0.128953
vt 0.530077 0.118725
vt 0.531338 0.119453
vt 0.514247 0.035125
vt 0.521256 0.035125
vt 0.521256 0.063705
vt 0.514247 0.063705
vt 0.550747 0.060588
vt 0.545764 0.060588
vt 0.545764 0.040269
vt 0.550747 0.040269
vt 0.550747 0.080908
vt 0.545764 0.080908
vt 0.550747 0.101227
vt 0.545764 0.101227
vt 0.514247 0.092285
vt 0.521256 0.092285
vt 0.521256 0.120864
vt 0.514247 0.120864
vt 0.460412 0.114929
vt 0.460412 0.116303
vt 0.460412 0.135602
vt 0.460412 0.134228
vt 0.481222 0.011929
vt 0.481222 0.051578
vt 0.465117 0.051578
vt 0.465117 0.011929
vt 0.496819 0.073879
vt 0.454956 0.073879
vt 0.454956 0.056875
vt 0.496819 0.056875
vt 0.496819 0.090883
vt 0.454956 0.090883
vt 0.496819 0.107887
vt 0.454956 0.107887
vt 0.449012 0.011929
vt 0.449012 0.051578
vt 0.432908 0.051578
vt 0.432908 0.011929
vt 0.439794 0.077281
vt 0.434087 0.073986
vt 0.434087 0.073460
vt 0.440250 0.077018
vt 0.428380 0.077281
vt 0.427924 0.077018
vt 0.428380 0.083871
vt 0.427924 0.084134
vt 0.434087 0.087166
vt 0.434087 0.087692
vt 0.439794 0.083871
vt 0.440250 0.084134
vt 0.144785 0.049831
vt 0.144785 0.097735
vt 0.001685 0.097735
vt 0.001685 0.049831
vt 0.800947 0.073120
vt 0.798850 0.057175
vt 0.832021 0.050584
vt 0.834694 0.070910
vt 0.776401 0.060962
vt 0.776401 0.079806
vt 0.736859 0.082395
vt 0.736859 0.058373
vt 0.778858 0.042280
vt 0.739992 0.034557
vt 0.778858 0.098488
vt 0.739992 0.106211
vt 0.000529 0.075435
vt 0.000377 0.075522
vt 0.000226 0.075435
vt 0.000226 0.075260
vt 0.000377 0.075173
vt 0.000529 0.075260
vt 0.144785 0.001926
vt 0.144785 0.049831
vt 0.001685 0.049831
vt 0.001685 0.001926
vt 0.144785 0.097735
vt 0.144785 0.145640
vt 0.001685 0.145640
vt 0.001685 0.097735
vt 0.144785 0.001926
vt 0.001685 0.001926
vt 0.144785 0.145640
vt 0.001685 0.145640
vt 0.499181 0.038489
vt 0.505512 0.034834
vt 0.507276 0.035852
vt 0.499181 0.040525
vt 0.492851 0.034834
vt 0.491087 0.035852
vt 0.492851 0.027524
vt 0.491087 0.026506
vt 0.499181 0.023869
vt 0.499181 0.021833
vt 0.505512 0.027524
vt 0.507276 0.026506
vt 0.598997 0.055388
vt 0.621846 0.042176
vt 0.621968 0.046912
vt 0.603147 0.057693
vt 0.493645 0.131654
vt 0.485861 0.127775
vt 0.487282 0.126784
vt 0.493586 0.130017
vt 0.501585 0.119355
vt 0.501585 0.128054
vt 0.500076 0.127218
vt 0.500176 0.120309
vt 0.749932 0.085073
vt 0.777577 0.101034
vt 0.777577 0.103861
vt 0.747484 0.086486
vt 0.749932 0.053151
vt 0.747484 0.051738
vt 0.777577 0.037191
vt 0.777577 0.034364
vt 0.805221 0.053151
vt 0.807670 0.051738
vt 0.805221 0.085073
vt 0.807670 0.086486
vt 0.648139 0.083916
vt 0.665591 0.073839
vt 0.683044 0.083916
vt 0.683044 0.104068
vt 0.665591 0.114145
vt 0.648139 0.104068
vt 0.621989 0.094475
vt 0.598997 0.081685
vt 0.603050 0.079199
vt 0.621867 0.089739
vt 0.644837 0.054966
vt 0.644837 0.081263
vt 0.640688 0.078958
vt 0.640785 0.057452
vn 0.1423 -0.4949 -0.8572
vn 0.1423 -0.9898 0.0000
vn 0.1423 -0.4949 0.8572
vn 0.1423 0.4949 0.8572
vn -0.1134 -0.4968 0.8604
vn 0.1423 0.9898 0.0000
vn 0.1423 0.4949 -0.8572
vn 0.0000 -1.0000 0.0000
vn 0.0000 0.5000 -0.8660
vn 0.0000 1.0000 0.0000
vn 0.0000 0.5000 0.8660
vn -0.0000 -0.5000 0.8660
vn 0.0000 -0.5000 -0.8660
vn -1.0000 0.0000 0.0000
vn 1.0000 -0.0000 0.0000
vn -0.1134 -0.4968 -0.8604
vn -0.1134 0.9935 -0.0000
vn -0.1134 -0.9935 0.0000
vn -0.1134 0.4968 -0.8604
vn -0.1134 0.4968 0.8604
vn -0.7721 0.6355 0.0000
vn -0.7721 -0.3178 0.5504
vn -0.7721 -0.3178 -0.5504
vn -0.7721 0.3178 -0.5504
vn -0.7721 0.3178 0.5504
vn -0.7721 -0.6355 0.0000
usemtl Material.001
s off
f 37/1/1 44/2/1 43/3/1 38/4/1
f 38/4/2 43/3/2 45/5/2 39/6/2
f 39/7/3 45/8/3 46/9/3 40/10/3
f 40/10/4 46/9/4 47/11/4 41/12/4
f 2/13/5 12/14/5 54/15/5 50/16/5
f 41/12/6 47/11/6 48/17/6 42/18/6
f 42/19/7 48/20/7 44/2/7 37/1/7
f 9/21/8 11/22/8 78/23/8 77/24/8
f 66/25/9 18/26/9 13/27/9 61/28/9
f 65/29/10 17/30/10 18/31/10 66/32/10
f 64/33/11 16/34/11 17/30/11 65/29/11
f 63/35/12 15/36/12 16/34/12 64/33/12
f 62/37/8 14/38/8 15/39/8 63/40/8
f 61/28/13 13/27/13 14/38/13 62/37/13
f 22/41/14 23/42/14 31/43/14 29/44/14
f 13/45/15 18/46/15 34/47/15 35/48/15
f 19/49/14 20/50/14 25/51/14 36/52/14
f 16/53/15 15/54/15 28/55/15 30/56/15
f 23/42/14 24/57/14 33/58/14 31/43/14
f 20/50/14 21/59/14 27/60/14 25/51/14
f 34/61/9 33/62/9 36/63/9 35/64/9
f 32/65/10 31/66/10 33/67/10 34/68/10
f 30/69/11 29/70/11 31/66/11 32/65/11
f 28/71/12 27/72/12 29/70/12 30/69/12
f 26/73/8 25/74/8 27/75/8 28/76/8
f 35/64/13 36/63/13 25/74/13 26/73/13
f 15/54/15 14/77/15 26/78/15 28/55/15
f 18/46/15 17/79/15 32/80/15 34/47/15
f 21/59/14 22/41/14 29/44/14 27/60/14
f 14/77/15 13/45/15 35/48/15 26/78/15
f 24/57/14 19/49/14 36/52/14 33/58/14
f 17/79/15 16/53/15 30/56/15 32/80/15
f 24/81/9 42/82/9 37/83/9 19/84/9
f 23/85/10 41/86/10 42/87/10 24/88/10
f 22/89/11 40/90/11 41/86/11 23/85/11
f 21/91/12 39/92/12 40/90/12 22/89/12
f 20/93/8 38/94/8 39/95/8 21/96/8
f 19/84/13 37/83/13 38/94/13 20/93/13
f 2/97/15 4/98/15 43/99/15 44/100/15
f 4/98/15 6/101/15 45/102/15 43/99/15
f 6/101/15 8/103/15 46/104/15 45/102/15
f 8/103/15 10/105/15 47/106/15 46/104/15
f 10/105/15 12/107/15 48/108/15 47/106/15
f 12/107/15 2/97/15 44/100/15 48/108/15
f 54/109/8 53/110/8 59/111/8 60/112/8
f 10/113/16 8/114/16 52/115/16 53/116/16
f 6/117/17 4/118/17 49/119/17 51/120/17
f 12/14/18 10/113/18 53/116/18 54/15/18
f 8/121/19 6/117/19 51/120/19 52/122/19
f 4/118/20 2/123/20 50/124/20 49/119/20
f 55/125/15 56/126/15 60/127/15 59/128/15 58/129/15 57/130/15
f 52/131/9 51/132/9 57/133/9 58/134/9
f 49/135/11 50/136/11 56/137/11 55/138/11
f 50/139/12 54/109/12 60/112/12 56/140/12
f 53/110/13 52/141/13 58/142/13 59/111/13
f 51/132/10 49/135/10 55/138/10 57/133/10
f 3/143/14 1/144/14 61/145/14 62/146/14
f 5/147/14 3/143/14 62/146/14 63/148/14
f 7/149/14 5/147/14 63/148/14 64/150/14
f 9/151/14 7/149/14 64/150/14 65/152/14
f 11/153/14 9/151/14 65/152/14 66/154/14
f 1/144/14 11/153/14 66/154/14 61/145/14
f 71/155/21 72/156/21 84/157/21 83/158/21
f 5/159/9 7/160/9 76/161/9 75/162/9
f 1/163/11 3/164/11 74/165/11 73/166/11
f 11/22/12 1/163/12 73/166/12 78/23/12
f 7/160/13 9/21/13 77/24/13 76/161/13
f 3/164/10 5/159/10 75/162/10 74/165/10
f 68/167/14 67/168/14 73/169/14 74/170/14
f 69/171/14 68/167/14 74/170/14 75/172/14
f 70/173/14 69/171/14 75/172/14 76/174/14
f 71/175/14 70/173/14 76/174/14 77/176/14
f 72/177/14 71/175/14 77/176/14 78/178/14
f 67/168/14 72/177/14 78/178/14 73/169/14
f 79/179/14 80/180/14 81/181/14 82/182/14 83/183/14 84/184/14
f 69/185/22 70/186/22 82/187/22 81/188/22
f 67/189/23 68/190/23 80/191/23 79/192/23
f 72/156/24 67/189/24 79/192/24 84/157/24
f 70/186/25 71/155/25 83/158/25 82/187/25
f 68/190/26 69/185/26 81/188/26 80/191/26
