o GiantCannonCase
v 0.070000 0.000000 -1.000000
v -1.975284 -0.866024 -0.500000
v -1.975284 0.000000 -1.000000
v 0.070000 -0.866024 -0.500000
v -1.975284 -0.866024 0.500000
v 0.070000 -0.866024 0.500000
v -1.975284 -0.000000 1.000000
v 0.070000 -0.000000 1.000000
v -1.975284 0.866024 0.500000
v 1.712712 -0.000000 0.817928
v 0.070000 0.866024 0.500000
v -1.975284 0.866028 -0.500000
v 0.070000 0.866024 -0.500000
v -2.312536 0.866024 0.500000
v -2.393624 -0.000000 1.074688
v -2.312536 -0.000000 1.000000
v -2.393624 0.930704 0.537344
v -2.483608 -0.000000 1.074688
v -2.312536 -0.866024 0.500000
v -2.393624 -0.930704 -0.537344
v -2.312536 -0.866024 -0.500000
v -2.312536 0.866028 -0.500000
v -2.393624 0.000000 -1.074688
v -2.312536 0.000000 -1.000000
v -2.393624 -0.930708 0.537344
v -2.393624 0.930708 -0.537344
v -2.483608 -0.667488 0.385376
v -2.262656 -0.480764 -0.277572
v -2.483608 -0.667488 -0.385376
v -2.483608 -0.930704 -0.537344
v -2.483608 0.930704 0.537344
v -2.483608 -0.930708 0.537344
v -2.483608 0.000000 -1.074688
v -2.483608 0.930708 -0.537344
v -2.483608 0.000000 -0.770748
v -2.483608 -0.000000 0.770748
v -2.483608 0.667488 0.385376
v -2.483608 0.667488 -0.385376
v -2.262656 0.374216 0.216056
v -2.393112 0.259780 -0.149984
v -2.393112 0.259776 0.149984
v -2.262656 0.480764 0.277572
v -2.262656 -0.000000 0.555140
v -2.262656 -0.480768 0.277572
v -2.262656 0.000000 -0.555140
v -2.262656 0.480768 -0.277568
v -2.262656 0.000000 -0.432108
v -2.262656 -0.374216 -0.216056
v -2.262656 -0.374216 0.216052
v -2.262656 -0.000000 0.432108
v -2.262656 0.374216 -0.216052
v -2.393112 -0.259776 -0.149984
v -2.393112 -0.259780 0.149984
v -2.393112 0.000000 -0.299968
v -2.393112 -0.000000 0.299968
v 1.712712 0.708344 0.408964
v 2.779748 0.708348 -0.408964
v 1.712712 0.708348 -0.408964
v 1.712712 0.000000 -0.817928
v 1.712712 -0.708348 0.408964
v 1.712712 -0.708344 -0.408964
v 2.779748 -0.610148 -0.352268
v 1.718024 -0.610148 0.352268
v 2.779748 -0.610148 0.352268
v 2.779748 -0.708348 0.408964
v 2.779748 -0.000000 0.817928
v 2.779748 -0.708344 -0.408964
v 2.779748 0.000000 -0.817928
v 2.779748 0.708344 0.408964
v 2.779748 0.000000 -0.704536
v 2.779748 -0.000000 0.704536
v 2.779748 0.610144 0.352268
v 2.779748 0.610148 -0.352268
v 1.718024 0.000000 -0.704536
v 0.052812 -0.766552 -0.442568
v 1.718024 -0.610144 -0.352268
v 1.718024 0.610148 -0.352268
v 1.718024 -0.000000 0.704536
v 1.718024 0.610144 0.352268
v 0.052812 0.766552 0.442568
v -2.105176 0.766552 -0.442568
v 0.052812 0.766552 -0.442568
v 0.052812 0.000000 -0.885136
v 0.052812 -0.766552 0.442568
v 0.052812 -0.000000 0.885136
v -2.105176 0.766552 0.442568
v -2.105176 -0.000000 0.885136
v -2.105176 -0.766552 0.442568
v -2.105176 -0.766552 -0.442568
v -2.105176 0.000000 -0.885136
v -2.312536 0.778668 -0.449564
v -2.312536 0.000000 -0.899128
v -1.975284 0.778668 0.449564
v -1.975284 -0.778668 -0.449564
v -1.975284 0.000000 -0.899128
v -1.975284 0.778668 -0.449564
v -1.975284 -0.000000 0.899128
v -1.975284 -0.778668 0.449564
v -2.312536 0.778668 0.449564
v -2.312536 -0.000000 0.899128
v -2.312536 -0.778668 0.449564
v -2.312536 -0.778668 -0.449564
vt 0.447409 0.064598
vt 0.422922 0.075754
vt 0.423244 0.063939
vt 0.446815 0.076278
vt 0.422740 0.087749
vt 0.446770 0.087800
vt 0.422789 0.099832
vt 0.453703 0.018325
vt 0.428934 0.029609
vt 0.429260 0.017658
vt 0.467119 0.097090
vt 0.447276 0.099566
vt 0.453101 0.030139
vt 0.428750 0.041742
vt 0.453056 0.041793
vt 0.428800 0.053963
vt 0.498269 0.060362
vt 0.509402 0.052299
vt 0.509401 0.054004
vt 0.496792 0.059508
vt 0.509341 0.050736
vt 0.520474 0.060466
vt 0.521889 0.074140
vt 0.520413 0.073286
vt 0.498208 0.073182
vt 0.509280 0.081349
vt 0.509281 0.079644
vt 0.521951 0.059615
vt 0.496731 0.074033
vt 0.589678 0.036384
vt 0.597981 0.055995
vt 0.589678 0.061268
vt 0.523274 0.074868
vt 0.495408 0.058780
vt 0.523274 0.058780
vt 0.509341 0.082912
vt 0.495408 0.074868
vt 0.540483 0.112094
vt 0.525552 0.127513
vt 0.525552 0.120714
vt 0.504733 0.115493
vt 0.510621 0.112094
vt 0.504733 0.091454
vt 0.510621 0.094853
vt 0.525552 0.079434
vt 0.525552 0.086233
vt 0.546371 0.091454
vt 0.540483 0.094853
vt 0.546371 0.115493
vt 0.673184 0.055164
vt 0.664078 0.042495
vt 0.672938 0.047760
vt 0.633077 0.061760
vt 0.624773 0.042150
vt 0.633077 0.036876
vt 0.611780 0.034184
vt 0.598352 0.041002
vt 0.611232 0.073792
vt 0.610974 0.063961
vt 0.624402 0.057143
vt 0.611522 0.024353
vt 0.808394 0.037388
vt 0.810401 0.046686
vt 0.808394 0.045527
vt 0.801345 0.051914
vt 0.801345 0.049597
vt 0.792289 0.046686
vt 0.794296 0.045527
vt 0.792289 0.036229
vt 0.794296 0.037388
vt 0.801345 0.031001
vt 0.801345 0.033318
vt 0.810401 0.036229
vt 0.648544 0.056800
vt 0.660705 0.063821
vt 0.648544 0.084884
vt 0.688657 0.046583
vt 0.682401 0.032905
vt 0.688657 0.028921
vt 0.657932 0.028818
vt 0.673606 0.027496
vt 0.664477 0.032304
vt 0.657851 0.046499
vt 0.682115 0.043111
vt 0.673331 0.020074
vt 0.473022 0.030850
vt 0.486214 0.040947
vt 0.473103 0.041105
vt 0.473639 0.051190
vt 0.453568 0.053694
vt 0.466589 0.087120
vt 0.466929 0.067025
vt 0.466509 0.076981
vt 0.145826 0.046372
vt 0.145665 0.046266
vt 0.145826 0.046268
vt 0.479552 0.086963
vt 0.479804 0.096661
vt 0.479573 0.077195
vt 0.486470 0.050757
vt 0.473447 0.020780
vt 0.486236 0.031067
vt 0.496292 0.125918
vt 0.485049 0.134499
vt 0.485049 0.132409
vt 0.496292 0.112935
vt 0.498101 0.126962
vt 0.485049 0.106444
vt 0.498101 0.111890
vt 0.473805 0.112935
vt 0.485049 0.104354
vt 0.473805 0.125918
vt 0.471996 0.111890
vt 0.471996 0.126962
vt 0.145672 0.046481
vt 0.145411 0.046386
vt 0.145666 0.046374
vt 0.145782 0.046853
vt 0.145654 0.046769
vt 0.145782 0.046771
vt 0.145670 0.046159
vt 0.145829 0.046163
vt 0.145829 0.046475
vt 0.145658 0.046684
vt 0.145784 0.046687
vt 0.145784 0.046935
vt 0.145655 0.046855
vt 0.145574 0.095709
vt 0.000878 0.049924
vt 0.145574 0.049924
vt 0.145463 0.046658
vt 0.145661 0.046939
vt 0.145454 0.046864
vt 0.145411 0.046255
vt 0.145454 0.046760
vt 0.145423 0.046125
vt 0.000417 0.061001
vt 0.000904 0.060720
vt 0.001391 0.061001
vt 0.145574 0.049924
vt 0.000878 0.004139
vt 0.145574 0.004139
vt 0.145574 0.141494
vt 0.000878 0.095709
vt 0.145574 0.095709
vt 0.000878 0.004139
vt 0.145574 0.004139
vt 0.145574 0.141494
vt 0.000878 0.095709
vt 0.000878 0.049924
vt 0.499366 0.072532
vt 0.509296 0.078317
vt 0.530512 0.049474
vt 0.546276 0.038330
vt 0.548045 0.039351
vt 0.530512 0.008984
vt 0.514748 0.020127
vt 0.512980 0.019106
vt 0.514748 0.038330
vt 0.530512 0.047431
vt 0.546276 0.020127
vt 0.530512 0.011026
vt 0.820520 0.044532
vt 0.828454 0.023379
vt 0.828454 0.044532
vt 0.820520 0.065684
vt 0.828454 0.065684
vt 0.820520 0.086836
vt 0.828454 0.086836
vt 0.801134 0.084294
vt 0.807104 0.068379
vt 0.807104 0.084294
vt 0.801134 0.100209
vt 0.807104 0.100209
vt 0.801134 0.116123
vt 0.807104 0.116123
vt 0.512980 0.039351
vt 0.499410 0.061039
vt 0.548045 0.019106
vt 0.519272 0.072609
vt 0.509385 0.055331
vt 0.519316 0.061116
vt 0.660705 0.077863
vt 0.636383 0.077863
vt 0.636383 0.063821
vt 0.479804 0.067326
vt 0.486470 0.021084
vt 0.145424 0.046518
vt 0.145464 0.046969
vt 0.001391 0.061563
vt 0.000904 0.061845
vt 0.000417 0.061563
vt 0.000878 0.141494
vt 0.000878 0.141494
vt 0.820520 0.023379
vt 0.801134 0.068379
vn 0.0542 0.0000 -0.9985
vn 0.0000 -0.8660 -0.5000
vn 0.0000 -0.0000 -1.0000
vn 0.0542 -0.8648 -0.4993
vn 0.0000 -0.8660 0.5000
vn 0.0542 -0.8648 0.4993
vn 0.0000 -0.0000 1.0000
vn 0.0542 -0.0000 0.9985
vn 0.0000 0.8660 0.5000
vn 0.0562 0.0000 0.9984
vn 0.0542 0.8648 0.4993
vn 0.0000 0.8660 -0.5000
vn 0.0542 0.8648 -0.4993
vn 0.8655 0.4337 0.2504
vn 0.3294 -0.0000 0.9442
vn 0.8655 0.0000 0.5008
vn 0.3294 0.8177 0.4721
vn 0.8655 -0.4337 0.2504
vn 0.3294 -0.8177 -0.4721
vn 0.8655 -0.4337 -0.2504
vn 0.8655 0.4337 -0.2504
vn 0.3294 0.0000 -0.9442
vn 0.8655 -0.0000 -0.5008
vn 0.3294 -0.8177 0.4721
vn 0.3294 0.8177 -0.4721
vn -0.6984 0.6198 -0.3579
vn -0.6984 0.6198 0.3579
vn -1.0000 -0.0000 0.0000
vn -0.7116 0.6084 0.3513
vn -0.7116 0.6084 -0.3513
vn -0.6984 -0.6198 0.3579
vn -0.6984 -0.6198 -0.3579
vn -0.6984 -0.0000 -0.7157
vn -0.6984 -0.0000 0.7157
vn -0.6984 -0.6198 0.3578
vn -0.7116 -0.0000 0.7026
vn -0.7116 -0.6084 0.3513
vn -0.7116 0.0000 -0.7026
vn -0.7116 -0.6084 -0.3513
vn 0.0562 0.8647 0.4992
vn 0.0562 0.8647 -0.4992
vn 0.0562 -0.0000 -0.9984
vn 0.0562 -0.8647 0.4992
vn 0.0562 -0.8647 -0.4992
vn -0.0549 0.8647 -0.4992
vn 1.0000 -0.0000 0.0000
vn -0.0549 0.0000 0.9985
vn -0.0531 0.8648 0.4993
vn -0.0549 0.8647 0.4992
vn -0.0549 -0.8647 0.4992
vn -0.0549 -0.0000 -0.9985
vn -0.0549 -0.8647 -0.4992
vn -0.0531 -0.8648 -0.4993
vn -0.0531 -0.8648 0.4993
vn -0.0531 -0.0000 0.9986
vn -0.0531 0.8648 -0.4993
vn -0.0531 0.0000 -0.9986
usemtl Texture
s 1
f 1/1/1 2/2/2 3/3/3
f 4/4/4 5/5/5 2/2/2
f 6/6/6 7/7/7 5/5/5
f 8/8/8 9/9/9 7/10/7
f 6/6/6 10/11/10 8/12/8
f 11/13/11 12/14/12 9/9/9
f 13/15/13 3/16/3 12/14/12
f 14/17/14 15/18/15 16/19/16
f 17/20/17 18/21/7 15/18/15
f 19/22/18 20/23/19 21/24/20
f 22/25/21 17/20/17 14/17/14
f 21/24/20 23/26/22 24/27/23
f 16/19/16 25/28/24 19/22/18
f 24/27/23 26/29/25 22/25/21
f 27/30/26 28/31/27 29/32/27
f 25/28/24 30/33/2 20/23/19
f 26/29/25 31/34/9 17/20/17
f 15/18/15 32/35/5 25/28/24
f 20/23/19 33/36/3 23/26/22
f 23/26/22 34/37/12 26/29/25
f 35/38/28 30/39/28 29/40/28
f 29/40/28 32/41/28 27/42/28
f 27/42/28 18/43/28 36/44/28
f 36/44/28 31/45/28 37/46/28
f 37/46/28 34/47/28 38/48/28
f 35/38/28 34/47/28 33/49/28
f 39/50/29 40/51/30 41/52/29
f 38/53/31 42/54/32 37/55/32
f 27/30/26 43/56/33 44/57/26
f 35/58/34 28/31/27 45/59/34
f 38/53/31 45/59/34 46/60/35
f 37/55/32 43/56/33 36/61/33
f 47/62/28 28/63/28 48/64/28
f 48/64/28 44/65/28 49/66/28
f 49/66/28 43/67/28 50/68/28
f 50/68/28 42/69/28 39/70/28
f 39/70/28 46/71/28 51/72/28
f 51/72/28 45/73/28 47/62/28
f 41/74/28 40/75/28 52/76/28
f 50/77/36 53/78/37 49/79/37
f 47/80/38 52/81/39 54/82/38
f 47/80/38 40/51/30 51/83/30
f 39/50/29 55/84/36 50/77/36
f 49/79/37 52/81/39 48/85/39
f 56/86/40 57/87/12 58/88/41
f 13/15/13 59/89/42 1/90/1
f 8/8/8 56/86/40 11/13/11
f 4/4/4 60/91/43 6/6/6
f 11/13/11 58/88/41 13/15/13
f 4/4/4 59/92/42 61/93/44
f 62/94/9 63/95/45 64/96/12
f 10/11/10 65/97/5 66/98/7
f 59/92/42 67/99/2 61/93/44
f 58/88/41 68/100/3 59/89/42
f 10/101/10 69/102/9 56/86/40
f 61/93/44 65/97/5 60/91/43
f 62/103/46 68/104/46 70/105/46
f 64/106/46 67/107/46 62/103/46
f 71/108/46 65/109/46 64/106/46
f 72/110/46 66/111/46 71/108/46
f 73/112/46 69/113/46 72/110/46
f 73/112/46 68/104/46 57/114/46
f 74/115/47 75/116/48 76/117/49
f 72/118/2 77/119/50 73/120/5
f 64/96/12 78/121/51 71/122/3
f 70/123/7 76/117/49 62/94/9
f 73/120/5 74/124/47 70/125/7
f 71/126/3 79/127/52 72/118/2
f 80/128/53 81/129/5 82/130/54
f 77/119/50 83/131/55 74/124/47
f 78/132/51 80/133/53 79/127/52
f 63/95/45 75/116/48 84/134/56
f 79/127/52 82/135/54 77/119/50
f 63/95/45 85/136/57 78/121/51
f 86/137/46 87/138/46 88/139/46
f 84/140/56 87/141/3 85/142/57
f 83/143/55 89/144/9 75/145/48
f 82/130/54 90/146/7 83/147/55
f 85/148/57 86/149/2 80/128/53
f 75/145/48 88/150/12 84/140/56
f 14/17/14 91/151/46 22/25/21
f 22/25/21 92/152/46 24/27/23
f 12/153/28 93/154/28 9/155/28
f 5/156/28 94/157/28 2/158/28
f 12/153/28 95/159/28 96/160/28
f 5/156/28 97/161/28 98/162/28
f 96/163/12 92/164/3 91/165/12
f 93/166/9 91/165/12 99/167/9
f 97/168/7 99/167/9 100/169/7
f 98/170/5 100/171/7 101/172/5
f 94/173/2 101/172/5 102/174/2
f 95/175/3 102/174/2 92/176/3
f 3/177/28 94/157/28 95/159/28
f 16/19/16 99/178/46 14/17/14
f 9/155/28 97/161/28 7/179/28
f 24/27/23 102/180/46 21/24/20
f 19/22/18 100/181/46 16/19/16
f 21/24/20 101/182/46 19/22/18
f 1/1/1 4/4/4 2/2/2
f 4/4/4 6/6/6 5/5/5
f 6/6/6 8/12/8 7/7/7
f 8/8/8 11/13/11 9/9/9
f 6/6/6 60/91/43 10/11/10
f 11/13/11 13/15/13 12/14/12
f 13/15/13 1/90/1 3/16/3
f 14/17/14 17/20/17 15/18/15
f 17/20/17 31/34/9 18/21/7
f 19/22/18 25/28/24 20/23/19
f 22/25/21 26/29/25 17/20/17
f 21/24/20 20/23/19 23/26/22
f 16/19/16 15/18/15 25/28/24
f 24/27/23 23/26/22 26/29/25
f 27/30/26 44/57/26 28/31/27
f 25/28/24 32/35/5 30/33/2
f 26/29/25 34/37/12 31/34/9
f 15/18/15 18/21/7 32/35/5
f 20/23/19 30/33/2 33/36/3
f 23/26/22 33/36/3 34/37/12
f 35/38/28 33/49/28 30/39/28
f 29/40/28 30/39/28 32/41/28
f 27/42/28 32/41/28 18/43/28
f 36/44/28 18/43/28 31/45/28
f 37/46/28 31/45/28 34/47/28
f 35/38/28 38/48/28 34/47/28
f 39/50/29 51/83/30 40/51/30
f 38/53/31 46/60/35 42/54/32
f 27/30/26 36/61/33 43/56/33
f 35/58/34 29/32/27 28/31/27
f 38/53/31 35/58/34 45/59/34
f 37/55/32 42/54/32 43/56/33
f 47/62/28 45/73/28 28/63/28
f 48/64/28 28/63/28 44/65/28
f 49/66/28 44/65/28 43/67/28
f 50/68/28 43/67/28 42/69/28
f 39/70/28 42/69/28 46/71/28
f 51/72/28 46/71/28 45/73/28
f 40/75/28 54/183/28 52/76/28
f 52/76/28 53/184/28 55/185/28
f 55/185/28 41/74/28 52/76/28
f 50/77/36 55/84/36 53/78/37
f 47/80/38 48/85/39 52/81/39
f 47/80/38 54/82/38 40/51/30
f 39/50/29 41/52/29 55/84/36
f 49/79/37 53/78/37 52/81/39
f 56/86/40 69/102/9 57/87/12
f 13/15/13 58/88/41 59/89/42
f 8/8/8 10/101/10 56/86/40
f 4/4/4 61/93/44 60/91/43
f 11/13/11 56/86/40 58/88/41
f 4/4/4 1/1/1 59/92/42
f 62/94/9 76/117/49 63/95/45
f 10/11/10 60/91/43 65/97/5
f 59/92/42 68/186/3 67/99/2
f 58/88/41 57/87/12 68/100/3
f 10/101/10 66/187/7 69/102/9
f 61/93/44 67/99/2 65/97/5
f 62/103/46 67/107/46 68/104/46
f 64/106/46 65/109/46 67/107/46
f 71/108/46 66/111/46 65/109/46
f 72/110/46 69/113/46 66/111/46
f 73/112/46 57/114/46 69/113/46
f 73/112/46 70/105/46 68/104/46
f 74/115/47 83/188/55 75/116/48
f 72/118/2 79/127/52 77/119/50
f 64/96/12 63/95/45 78/121/51
f 70/123/7 74/115/47 76/117/49
f 73/120/5 77/119/50 74/124/47
f 71/126/3 78/132/51 79/127/52
f 80/128/53 86/149/2 81/129/5
f 77/119/50 82/135/54 83/131/55
f 78/132/51 85/189/57 80/133/53
f 63/95/45 76/117/49 75/116/48
f 79/127/52 80/133/53 82/135/54
f 63/95/45 84/134/56 85/136/57
f 88/139/46 89/190/46 86/137/46
f 89/190/46 90/191/46 86/137/46
f 90/191/46 81/192/46 86/137/46
f 84/140/56 88/150/12 87/141/3
f 83/143/55 90/193/7 89/144/9
f 82/130/54 81/129/5 90/146/7
f 85/148/57 87/194/3 86/149/2
f 75/145/48 89/144/9 88/150/12
f 14/17/14 99/178/46 91/151/46
f 22/25/21 91/151/46 92/152/46
f 12/153/28 96/160/28 93/154/28
f 5/156/28 98/162/28 94/157/28
f 12/153/28 3/177/28 95/159/28
f 5/156/28 7/179/28 97/161/28
f 96/163/12 95/195/3 92/164/3
f 93/166/9 96/163/12 91/165/12
f 97/168/7 93/166/9 99/167/9
f 98/170/5 97/196/7 100/171/7
f 94/173/2 98/170/5 101/172/5
f 95/175/3 94/173/2 102/174/2
f 3/177/28 2/158/28 94/157/28
f 16/19/16 100/181/46 99/178/46
f 9/155/28 93/154/28 97/161/28
f 24/27/23 92/152/46 102/180/46
f 19/22/18 101/182/46 100/181/46
f 21/24/20 102/180/46 101/182/46