# Blender v2.90.1 OBJ File: ''
# www.blender.org
mtllib NavalCannon2Shell.mtl
o Cylinder1.005
v -3.174273 0.405756 0.000000
v 0.487114 0.405756 0.000000
v 0.487114 0.286913 -0.286913
v -3.174273 0.286913 -0.286913
v -3.374632 0.277537 0.000000
v -3.374632 0.196248 0.196248
v -3.174273 0.286913 0.286913
v 0.487114 0.286913 0.286913
v -3.374632 -0.000000 0.277537
v -3.174273 -0.000000 0.405756
v 0.487114 -0.000000 0.405756
v -3.374632 -0.196248 0.196248
v -3.174273 -0.286913 0.286913
v 0.487114 -0.286913 0.286913
v -3.374632 -0.277537 -0.000000
v -3.174273 -0.405756 -0.000000
v 0.487114 -0.405756 -0.000000
v -3.374632 -0.196248 -0.196248
v -3.174273 -0.286913 -0.286913
v 0.487114 -0.286913 -0.286913
v -3.374632 0.000000 -0.277537
v -3.174273 0.000000 -0.405756
v 0.487114 0.000000 -0.405756
v -3.374632 0.196248 -0.196248
v 1.162085 0.328662 0.000000
v 1.162085 0.232399 -0.232399
v 1.162085 0.232399 0.232399
v 1.162085 -0.000000 0.328662
v 1.162085 -0.232399 0.232399
v 1.162085 -0.328662 -0.000000
v 1.162085 -0.232399 -0.232399
v 1.162085 0.000000 -0.328662
v 1.672104 0.230721 0.000000
v 1.672104 0.163144 -0.163144
v 1.672104 0.163144 0.163144
v 1.672104 -0.000000 0.230721
v 1.672104 -0.163144 0.163144
v 1.672104 -0.230721 -0.000000
v 1.672104 -0.163144 -0.163144
v 1.672104 0.000000 -0.230721
v 2.034472 0.107516 0.000000
v 2.034472 0.076025 -0.076025
v 2.034472 0.076025 0.076025
v 2.034472 -0.000000 0.107516
v 2.034472 -0.076025 0.076025
v 2.034472 -0.107516 -0.000000
v 2.034472 -0.076025 -0.076025
v 2.034472 0.000000 -0.107516
v 2.265737 -0.000000 -0.000000
vt 0.994597 0.991242
vt 0.979614 0.991227
vt 0.979703 0.989964
vt 0.994598 0.989971
vt 0.959878 0.983409
vt 0.960238 0.984379
vt 0.959745 0.984965
vt 0.958798 0.984529
vt 0.994595 0.982260
vt 0.979694 0.982330
vt 0.979594 0.981053
vt 0.994590 0.980973
vt 0.959757 0.985734
vt 0.958782 0.986070
vt 0.994598 0.983547
vt 0.979731 0.983580
vt 0.960316 0.986242
vt 0.959873 0.987179
vt 0.994598 0.984834
vt 0.979703 0.984827
vt 0.961077 0.986197
vt 0.961434 0.987176
vt 0.994597 0.986105
vt 0.979614 0.986090
vt 0.961590 0.985623
vt 0.962536 0.986066
vt 0.994595 0.987397
vt 0.979694 0.987467
vt 0.979594 0.986189
vt 0.961555 0.984853
vt 0.962536 0.984503
vt 0.994598 0.988684
vt 0.979731 0.988717
vt 0.960992 0.984337
vt 0.961435 0.983399
vt 0.976808 0.990753
vt 0.976986 0.989733
vt 0.976973 0.982571
vt 0.976782 0.981545
vt 0.977041 0.983584
vt 0.976986 0.984596
vt 0.976808 0.985616
vt 0.976973 0.987708
vt 0.976782 0.986682
vt 0.977041 0.988721
vt 0.974731 0.990118
vt 0.974937 0.989424
vt 0.974923 0.982894
vt 0.974705 0.982203
vt 0.974999 0.983590
vt 0.974937 0.984287
vt 0.974731 0.984981
vt 0.974923 0.988031
vt 0.974705 0.987340
vt 0.974999 0.988726
vt 0.973308 0.989376
vt 0.973446 0.989062
vt 0.973441 0.983267
vt 0.973301 0.982960
vt 0.973490 0.983595
vt 0.973446 0.983925
vt 0.973308 0.984239
vt 0.973441 0.988404
vt 0.973301 0.988097
vt 0.973490 0.988732
vt 0.972443 0.988738
vt 0.972443 0.983602
vt 0.963153 0.985489
vt 0.962541 0.984877
vt 0.962541 0.984011
vt 0.963153 0.983399
vt 0.964019 0.983399
vt 0.964631 0.984011
vt 0.964631 0.984877
vt 0.964019 0.985489
vn 0.0200 0.9998 -0.0000
vn 0.0567 0.9984 0.0000
vn 0.0568 0.7060 -0.7060
vn 0.0133 0.6965 -0.7175
vn -0.5553 0.8316 0.0000
vn -0.4938 0.8684 0.0446
vn -0.5503 0.5411 0.6359
vn -0.5512 0.5990 0.5808
vn 0.0133 0.6965 0.7175
vn 0.0568 0.7060 0.7060
vn -0.5503 -0.0670 0.8322
vn -0.5512 0.0129 0.8342
vn 0.0133 -0.0149 0.9998
vn 0.0567 -0.0000 0.9984
vn -0.5503 -0.6359 0.5411
vn -0.5512 -0.5808 0.5990
vn 0.0133 -0.7175 0.6965
vn 0.0568 -0.7060 0.7060
vn -0.5503 -0.8322 -0.0670
vn -0.5512 -0.8342 0.0129
vn 0.0133 -0.9998 -0.0149
vn 0.0567 -0.9984 -0.0000
vn -0.5503 -0.5411 -0.6359
vn -0.5512 -0.5990 -0.5808
vn 0.0133 -0.6965 -0.7175
vn 0.0568 -0.7060 -0.7060
vn -0.5503 0.0670 -0.8322
vn -0.5512 -0.0129 -0.8342
vn 0.0133 0.0149 -0.9998
vn 0.0567 0.0000 -0.9984
vn -0.5503 0.6359 -0.5411
vn -0.5512 0.5990 -0.5808
vn 0.1511 0.9885 0.0000
vn 0.1511 0.6990 -0.6990
vn 0.1511 0.6990 0.6990
vn 0.1511 -0.0000 0.9885
vn 0.1511 -0.6990 0.6990
vn 0.1511 -0.9885 -0.0000
vn 0.1511 -0.6990 -0.6990
vn 0.1511 0.0000 -0.9885
vn 0.2560 0.9667 0.0000
vn 0.2560 0.6835 -0.6835
vn 0.2560 0.6835 0.6835
vn 0.2560 -0.0000 0.9667
vn 0.2560 -0.6835 0.6835
vn 0.2560 -0.9667 -0.0000
vn 0.2560 -0.6835 -0.6835
vn 0.2560 0.0000 -0.9667
vn 0.3724 0.9281 -0.0000
vn 0.3724 0.6562 -0.6562
vn 0.3724 0.6562 0.6562
vn 0.3724 0.0000 0.9281
vn 0.3724 -0.6562 0.6562
vn 0.3724 -0.9281 0.0000
vn 0.3724 -0.6562 -0.6562
vn 0.3724 -0.0000 -0.9281
vn 1.0000 -0.0000 -0.0000
vn -0.9982 -0.0539 -0.0270
vn -0.9982 -0.0557 -0.0231
vn -0.9982 -0.0557 0.0231
vn -0.9982 -0.0231 0.0557
vn -0.9982 0.0231 0.0557
vn -0.9982 0.0557 0.0231
vn -0.9982 0.0557 -0.0231
vn -0.9982 0.0231 -0.0557
usemtl default.005
s 1
f 1/1/1 2/2/2 3/3/3 4/4/4
f 1/5/5 5/6/6 6/7/7 7/8/8
f 7/9/9 8/10/10 2/11/2 1/12/1
f 7/8/8 6/7/7 9/13/11 10/14/12
f 10/15/13 11/16/14 8/10/10 7/9/9
f 10/14/12 9/13/11 12/17/15 13/18/16
f 13/19/17 14/20/18 11/16/14 10/15/13
f 13/18/16 12/17/15 15/21/19 16/22/20
f 16/23/21 17/24/22 14/20/18 13/19/17
f 16/22/20 15/21/19 18/25/23 19/26/24
f 19/27/25 20/28/26 17/29/22 16/23/21
f 19/26/24 18/25/23 21/30/27 22/31/28
f 22/32/29 23/33/30 20/28/26 19/27/25
f 22/31/28 21/30/27 24/34/31 4/35/32
f 4/4/4 3/3/3 23/33/30 22/32/29
f 4/35/32 24/34/31 5/6/6 1/5/5
f 2/2/2 25/36/33 26/37/34 3/3/3
f 8/10/10 27/38/35 25/39/33 2/11/2
f 11/16/14 28/40/36 27/38/35 8/10/10
f 14/20/18 29/41/37 28/40/36 11/16/14
f 17/24/22 30/42/38 29/41/37 14/20/18
f 20/28/26 31/43/39 30/44/38 17/29/22
f 23/33/30 32/45/40 31/43/39 20/28/26
f 3/3/3 26/37/34 32/45/40 23/33/30
f 25/36/33 33/46/41 34/47/42 26/37/34
f 27/38/35 35/48/43 33/49/41 25/39/33
f 28/40/36 36/50/44 35/48/43 27/38/35
f 29/41/37 37/51/45 36/50/44 28/40/36
f 30/42/38 38/52/46 37/51/45 29/41/37
f 31/43/39 39/53/47 38/54/46 30/44/38
f 32/45/40 40/55/48 39/53/47 31/43/39
f 26/37/34 34/47/42 40/55/48 32/45/40
f 33/46/41 41/56/49 42/57/50 34/47/42
f 35/48/43 43/58/51 41/59/49 33/49/41
f 36/50/44 44/60/52 43/58/51 35/48/43
f 37/51/45 45/61/53 44/60/52 36/50/44
f 38/52/46 46/62/54 45/61/53 37/51/45
f 39/53/47 47/63/55 46/64/54 38/54/46
f 40/55/48 48/65/56 47/63/55 39/53/47
f 34/47/42 42/57/50 48/65/56 40/55/48
f 41/56/49 49/66/57 42/57/50
f 43/58/51 49/67/57 41/59/49
f 44/60/52 49/67/57 43/58/51
f 45/61/53 49/67/57 44/60/52
f 46/62/54 49/67/57 45/61/53
f 47/63/55 49/66/57 46/64/54
f 48/65/56 49/66/57 47/63/55
f 42/57/50 49/66/57 48/65/56
f 5/68/58 24/69/59 21/70/60 18/71/61 15/72/62 12/73/63 9/74/64 6/75/65
