o TankCannonShell
v -0.241121 0.076500 0.000000
v 0.106674 0.076500 0.000000
v 0.106674 0.054094 -0.054094
v -0.241121 0.054094 -0.054094
v -0.278897 0.052326 0.000000
v -0.278897 0.037000 0.037000
v -0.241121 0.054094 0.054094
v 0.106674 0.054094 0.054094
v -0.278897 -0.000000 0.052326
v -0.241121 -0.000000 0.076500
v 0.106674 -0.000000 0.076500
v -0.278897 -0.037000 0.037000
v -0.241121 -0.054094 0.054094
v 0.106674 -0.054094 0.054094
v -0.278897 -0.052326 -0.000000
v -0.241121 -0.076500 -0.000000
v 0.106674 -0.076500 -0.000000
v -0.278897 -0.037000 -0.037000
v -0.241121 -0.054094 -0.054094
v 0.106674 -0.054094 -0.054094
v -0.278897 0.000000 -0.052326
v -0.241121 0.000000 -0.076500
v 0.106674 0.000000 -0.076500
v -0.278897 0.037000 -0.037000
v 0.162611 0.061965 0.000000
v 0.162611 0.043816 -0.043816
v 0.162611 0.043816 0.043816
v 0.162611 -0.000000 0.061965
v 0.162611 -0.043816 0.043816
v 0.162611 -0.061965 -0.000000
v 0.162611 -0.043816 -0.043816
v 0.162611 0.000000 -0.061965
v 0.206051 0.043499 0.000000
v 0.206051 0.030759 -0.030759
v 0.206051 0.030759 0.030759
v 0.206051 -0.000000 0.043499
v 0.206051 -0.030759 0.030759
v 0.206051 -0.043499 -0.000000
v 0.206051 -0.030759 -0.030759
v 0.206051 0.000000 -0.043499
v 0.243768 0.020271 0.000000
v 0.243768 0.014334 -0.014333
v 0.243768 0.014333 0.014334
v 0.243768 -0.000000 0.020271
v 0.243768 -0.014334 0.014333
v 0.243768 -0.020271 -0.000000
v 0.243768 -0.014333 -0.014334
v 0.243768 0.000000 -0.020271
v 0.266373 0.000000 0.000000
vt 0.991580 0.990686
vt 0.982268 0.990620
vt 0.982525 0.989079
vt 0.991591 0.989118
vt 0.958755 0.986300
vt 0.959946 0.985889
vt 0.960629 0.986510
vt 0.960087 0.987654
vt 0.991569 0.979491
vt 0.982460 0.979767
vt 0.982121 0.978206
vt 0.991523 0.977873
vt 0.961558 0.986454
vt 0.961995 0.987650
vt 0.991591 0.981102
vt 0.982590 0.981219
vt 0.962185 0.985753
vt 0.963341 0.986294
vt 0.991591 0.982709
vt 0.982525 0.982670
vt 0.962142 0.984813
vt 0.963341 0.984385
vt 0.991580 0.984277
vt 0.982268 0.984211
vt 0.961455 0.984182
vt 0.961996 0.983037
vt 0.991569 0.985900
vt 0.982460 0.986176
vt 0.982121 0.984615
vt 0.991523 0.984282
vt 0.960533 0.984233
vt 0.960094 0.983049
vt 0.991591 0.987511
vt 0.982590 0.987628
vt 0.959932 0.984950
vt 0.958774 0.984417
vt 0.980665 0.990067
vt 0.981080 0.988828
vt 0.981025 0.980051
vt 0.980553 0.978838
vt 0.981190 0.981231
vt 0.981080 0.982419
vt 0.980665 0.983658
vt 0.981025 0.986460
vt 0.980553 0.985247
vt 0.981190 0.987640
vt 0.979467 0.989335
vt 0.979895 0.988505
vt 0.979863 0.980405
vt 0.979409 0.979605
vt 0.980019 0.981246
vt 0.979895 0.982096
vt 0.979467 0.982926
vt 0.979863 0.986814
vt 0.979409 0.986014
vt 0.980019 0.987655
vt 0.978524 0.988422
vt 0.978794 0.988069
vt 0.978786 0.980855
vt 0.978518 0.980517
vt 0.978880 0.981255
vt 0.978794 0.981660
vt 0.978524 0.982013
vt 0.978786 0.987264
vt 0.978518 0.986926
vt 0.978880 0.987664
vt 0.978035 0.987670
vt 0.978035 0.981261
vt 0.963346 0.984842
vt 0.963346 0.983785
vt 0.964094 0.983037
vt 0.965151 0.983037
vt 0.965899 0.983785
vt 0.965899 0.984842
vt 0.965151 0.985590
vt 0.964094 0.985590
vn 0.0200 0.9998 -0.0000
vn 0.1270 0.9919 0.0000
vn 0.1271 0.7014 -0.7014
vn 0.0133 0.6965 -0.7175
vn -0.5553 0.8317 -0.0000
vn -0.4938 0.8684 0.0446
vn -0.5503 0.5411 0.6359
vn -0.5512 0.5990 0.5808
vn 0.0133 0.6965 0.7175
vn 0.1271 0.7014 0.7014
vn -0.5503 -0.0670 0.8322
vn -0.5512 0.0129 0.8343
vn 0.0133 -0.0149 0.9998
vn 0.1270 -0.0000 0.9919
vn -0.5503 -0.6359 0.5411
vn -0.5512 -0.5808 0.5990
vn 0.0133 -0.7175 0.6965
vn 0.1271 -0.7014 0.7014
vn -0.5503 -0.8322 -0.0670
vn -0.5512 -0.8343 0.0129
vn 0.0133 -0.9998 -0.0149
vn 0.1270 -0.9919 -0.0000
vn -0.5503 -0.5411 -0.6359
vn -0.5512 -0.5990 -0.5808
vn 0.0133 -0.6965 -0.7175
vn 0.1271 -0.7014 -0.7014
vn -0.5503 0.0670 -0.8322
vn -0.5512 -0.0129 -0.8343
vn 0.0133 0.0149 -0.9998
vn 0.1270 0.0000 -0.9919
vn -0.5503 0.6359 -0.5411
vn -0.5512 0.5990 -0.5808
vn 0.3225 0.9466 0.0000
vn 0.3225 0.6693 -0.6693
vn 0.3225 0.6693 0.6693
vn 0.3225 -0.0000 0.9466
vn 0.3225 -0.6693 0.6693
vn 0.3225 -0.9466 -0.0000
vn 0.3225 -0.6693 -0.6693
vn 0.3225 0.0000 -0.9466
vn 0.4594 0.8882 0.0000
vn 0.4594 0.6281 -0.6281
vn 0.4594 0.6281 0.6281
vn 0.4594 -0.0000 0.8882
vn 0.4594 -0.6281 0.6281
vn 0.4594 -0.8882 -0.0000
vn 0.4594 -0.6281 -0.6281
vn 0.4594 0.0000 -0.8882
vn 0.5989 0.8008 0.0000
vn 0.5989 0.5663 -0.5663
vn 0.5989 0.5663 0.5663
vn 0.5989 -0.0000 0.8008
vn 0.5989 -0.5663 0.5663
vn 0.5989 -0.8008 -0.0000
vn 0.5989 -0.5663 -0.5663
vn 0.5989 0.0000 -0.8008
vn 1.0000 -0.0000 0.0000
vn -0.9982 -0.0539 -0.0270
vn -0.9982 -0.0557 -0.0231
vn -0.9982 -0.0557 0.0231
vn -0.9982 -0.0231 0.0557
vn -0.9982 0.0231 0.0557
vn -0.9982 0.0557 0.0231
vn -0.9982 0.0557 -0.0231
vn -0.9982 0.0231 -0.0557
s 1
f 1/1/1 2/2/2 3/3/3 4/4/4
f 1/5/5 5/6/6 6/7/7 7/8/8
f 7/9/9 8/10/10 2/11/2 1/12/1
f 7/8/8 6/7/7 9/13/11 10/14/12
f 10/15/13 11/16/14 8/10/10 7/9/9
f 10/14/12 9/13/11 12/17/15 13/18/16
f 13/19/17 14/20/18 11/16/14 10/15/13
f 13/18/16 12/17/15 15/21/19 16/22/20
f 16/23/21 17/24/22 14/20/18 13/19/17
f 16/22/20 15/21/19 18/25/23 19/26/24
f 19/27/25 20/28/26 17/29/22 16/30/21
f 19/26/24 18/25/23 21/31/27 22/32/28
f 22/33/29 23/34/30 20/28/26 19/27/25
f 22/32/28 21/31/27 24/35/31 4/36/32
f 4/4/4 3/3/3 23/34/30 22/33/29
f 4/36/32 24/35/31 5/6/6 1/5/5
f 2/2/2 25/37/33 26/38/34 3/3/3
f 8/10/10 27/39/35 25/40/33 2/11/2
f 11/16/14 28/41/36 27/39/35 8/10/10
f 14/20/18 29/42/37 28/41/36 11/16/14
f 17/24/22 30/43/38 29/42/37 14/20/18
f 20/28/26 31/44/39 30/45/38 17/29/22
f 23/34/30 32/46/40 31/44/39 20/28/26
f 3/3/3 26/38/34 32/46/40 23/34/30
f 25/37/33 33/47/41 34/48/42 26/38/34
f 27/39/35 35/49/43 33/50/41 25/40/33
f 28/41/36 36/51/44 35/49/43 27/39/35
f 29/42/37 37/52/45 36/51/44 28/41/36
f 30/43/38 38/53/46 37/52/45 29/42/37
f 31/44/39 39/54/47 38/55/46 30/45/38
f 32/46/40 40/56/48 39/54/47 31/44/39
f 26/38/34 34/48/42 40/56/48 32/46/40
f 33/47/41 41/57/49 42/58/50 34/48/42
f 35/49/43 43/59/51 41/60/49 33/50/41
f 36/51/44 44/61/52 43/59/51 35/49/43
f 37/52/45 45/62/53 44/61/52 36/51/44
f 38/53/46 46/63/54 45/62/53 37/52/45
f 39/54/47 47/64/55 46/65/54 38/55/46
f 40/56/48 48/66/56 47/64/55 39/54/47
f 34/48/42 42/58/50 48/66/56 40/56/48
f 41/57/49 49/67/57 42/58/50
f 43/59/51 49/68/57 41/60/49
f 44/61/52 49/68/57 43/59/51
f 45/62/53 49/68/57 44/61/52
f 46/63/54 49/68/57 45/62/53
f 47/64/55 49/67/57 46/65/54
f 48/66/56 49/67/57 47/64/55
f 42/58/50 49/67/57 48/66/56
f 5/69/58 24/70/59 21/71/60 18/72/61 15/73/62 12/74/63 9/75/64 6/76/65