o AircraftCannonShellCase
v -0.391787 0.160000 0.000000
v 0.346056 0.160000 -0.000000
v -0.391787 0.049443 -0.152169
v 0.346056 0.049443 -0.152169
v -0.391787 -0.129443 -0.094046
v 0.346056 -0.129443 -0.094046
v -0.391787 -0.129443 0.094046
v 0.346056 -0.129443 0.094046
v -0.391787 0.049443 0.152169
v 0.346056 0.049443 0.152169
vt 1.000000 0.500000
vt 1.000000 1.000000
vt 0.800000 1.000000
vt 0.800000 0.500000
vt 0.600000 1.000000
vt 0.600000 0.500000
vt 0.400000 1.000000
vt 0.400000 0.500000
vt 0.478254 0.324164
vt 0.250000 0.490000
vt 0.021746 0.324164
vt 0.108932 0.055836
vt 0.391068 0.055836
vt 0.200000 1.000000
vt 0.200000 0.500000
vt 0.000000 1.000000
vt 0.000000 0.500000
vt 0.750000 0.490000
vt 0.978254 0.324164
vt 0.891068 0.055836
vt 0.608932 0.055836
vt 0.521746 0.324164
vn 0.0000 0.8090 -0.5878
vn -0.0000 -0.3090 -0.9511
vn -0.0000 -1.0000 0.0000
vn 1.0000 0.0000 0.0000
vn 0.0000 -0.3090 0.9511
vn 0.0000 0.8090 0.5878
vn -1.0000 0.0000 0.0000
usemtl None
s off
f 1/1/1 2/2/1 4/3/1 3/4/1
f 3/4/2 4/3/2 6/5/2 5/6/2
f 5/6/3 6/5/3 8/7/3 7/8/3
f 4/9/4 2/10/4 10/11/4 8/12/4 6/13/4
f 7/8/5 8/7/5 10/14/5 9/15/5
f 9/15/6 10/14/6 2/16/6 1/17/6
f 1/18/7 3/19/7 5/20/7 7/21/7 9/22/7