o BigCannonShellCase
v -1.318556 0.000000 -0.749179
v 0.383976 -0.000000 -0.666908
v -1.318556 -0.648808 -0.374590
v 0.383976 -0.577559 -0.333454
v -1.318556 -0.648808 0.374590
v 0.383976 -0.577559 0.333454
v -1.318556 0.000000 0.749179
v 0.383976 0.000000 0.666908
v -1.318556 0.648808 0.374590
v 0.383976 0.577559 0.333454
v -1.318556 0.648808 -0.374590
v 0.383976 0.577559 -0.333454
v 1.311064 -0.462673 -0.267124
v 1.311064 -0.000000 -0.534248
v 1.311064 -0.462673 0.267124
v 1.311064 -0.000000 0.534248
v 1.311064 0.462673 0.267124
v 1.311064 0.462673 -0.267124
vt 1.000000 0.500000
vt 1.000000 1.000000
vt 0.833333 1.000000
vt 0.833333 0.500000
vt 0.666667 1.000000
vt 0.666667 0.500000
vt 0.500000 1.000000
vt 0.500000 0.500000
vt 0.333333 1.000000
vt 0.333333 0.500000
vt 0.166667 1.000000
vt 0.333333 1.000000
vt 0.166667 1.000000
vt 0.166667 0.500000
vt -0.000000 1.000000
vt -0.000000 0.500000
vt 0.750000 0.490000
vt 0.957846 0.370000
vt 0.957846 0.130000
vt 0.750000 0.010000
vt 0.542154 0.130000
vt 0.542154 0.370000
vt 0.457846 0.370000
vt 0.250000 0.490000
vt 0.042154 0.370000
vt 0.042154 0.130000
vt 0.250000 0.010000
vt 0.457846 0.130000
vt 1.000000 1.000000
vt 0.833333 1.000000
vt 0.666667 1.000000
vt 0.500000 1.000000
vt -0.000000 1.000000
vn 0.0418 -0.4996 -0.8653
vn 0.0418 -0.9991 0.0000
vn 0.0418 -0.4996 0.8653
vn 0.0418 0.4996 0.8653
vn 0.1230 0.9924 0.0000
vn 0.0418 0.9991 0.0000
vn 0.0418 0.4996 -0.8653
vn -1.0000 0.0000 0.0000
vn 1.0000 0.0000 0.0000
vn 0.1230 -0.4962 -0.8595
vn 0.1230 -0.4962 0.8595
vn 0.1230 0.4962 -0.8595
vn 0.1230 0.4962 0.8595
vn 0.1230 -0.9924 0.0000
usemtl None
s off
f 1/1/1 2/2/1 4/3/1 3/4/1
f 3/4/2 4/3/2 6/5/2 5/6/2
f 5/6/3 6/5/3 8/7/3 7/8/3
f 7/8/4 8/7/4 10/9/4 9/10/4
f 12/11/5 10/9/5 17/12/5 18/13/5
f 9/10/6 10/9/6 12/11/6 11/14/6
f 11/14/7 12/11/7 2/15/7 1/16/7
f 1/17/8 3/18/8 5/19/8 7/20/8 9/21/8 11/22/8
f 13/23/9 14/24/9 18/25/9 17/26/9 16/27/9 15/28/9
f 4/3/10 2/2/10 14/29/10 13/30/10
f 8/7/11 6/5/11 15/31/11 16/32/11
f 2/15/12 12/11/12 18/13/12 14/33/12
f 10/9/13 8/7/13 16/32/13 17/12/13
f 6/5/14 4/3/14 13/30/14 15/31/14