o GiantCannonShellCase
v -2.487629 0.000000 -1.067466
v 0.114328 -0.000000 -1.000000
v -2.487629 -0.924453 -0.533733
v 0.114328 -0.866026 -0.500000
v -2.487629 -0.924453 0.533733
v 0.114328 -0.866026 0.500000
v -2.487629 0.000000 1.067466
v 0.114328 -0.000000 1.000000
v -2.487629 0.924453 0.533733
v 0.114328 0.866025 0.500000
v -2.487629 0.924453 -0.533733
v 0.114328 0.866025 -0.500000
v 2.780000 -0.710642 -0.410289
v 2.780000 -0.000000 -0.820578
v 2.780000 -0.710642 0.410289
v 2.780000 -0.000000 0.820578
v 2.780000 0.710642 0.410289
v 2.780000 0.710642 -0.410289
vt 1.000000 0.500000
vt 1.000000 1.000000
vt 0.833333 1.000000
vt 0.833333 0.500000
vt 0.666667 1.000000
vt 0.666667 0.500000
vt 0.500000 1.000000
vt 0.500000 0.500000
vt 0.333333 1.000000
vt 0.333333 0.500000
vt 0.666667 1.000000
vt 0.500000 1.000000
vt 0.166667 1.000000
vt 0.166667 0.500000
vt -0.000000 1.000000
vt -0.000000 0.500000
vt 0.750000 0.490000
vt 0.957846 0.370000
vt 0.957846 0.130000
vt 0.750000 0.010000
vt 0.542154 0.130000
vt 0.542154 0.370000
vt 0.457846 0.370000
vt 0.250000 0.490000
vt 0.042154 0.370000
vt 0.042154 0.130000
vt 0.250000 0.010000
vt 0.457846 0.130000
vt 0.166667 1.000000
vt -0.000000 1.000000
vt 0.333333 1.000000
vt 0.833333 1.000000
vt 1.000000 1.000000
vn 0.0224 -0.4999 -0.8658
vn 0.0224 -0.9997 0.0000
vn 0.0224 -0.4999 0.8658
vn 0.0224 0.4999 0.8658
vn 0.0582 -0.4992 0.8646
vn 0.0224 0.9997 0.0000
vn 0.0224 0.4999 -0.8658
vn -1.0000 -0.0000 0.0000
vn 1.0000 -0.0000 0.0000
vn 0.0582 0.4992 -0.8646
vn 0.0582 0.4992 0.8646
vn 0.0582 -0.9983 0.0000
vn 0.0582 0.9983 0.0000
vn 0.0582 -0.4992 -0.8646
usemtl None
s off
f 1/1/1 2/2/1 4/3/1 3/4/1
f 3/4/2 4/3/2 6/5/2 5/6/2
f 5/6/3 6/5/3 8/7/3 7/8/3
f 7/8/4 8/7/4 10/9/4 9/10/4
f 8/7/5 6/5/5 15/11/5 16/12/5
f 9/10/6 10/9/6 12/13/6 11/14/6
f 11/14/7 12/13/7 2/15/7 1/16/7
f 1/17/8 3/18/8 5/19/8 7/20/8 9/21/8 11/22/8
f 13/23/9 14/24/9 18/25/9 17/26/9 16/27/9 15/28/9
f 2/15/10 12/13/10 18/29/10 14/30/10
f 10/9/11 8/7/11 16/12/11 17/31/11
f 6/5/12 4/3/12 13/32/12 15/11/12
f 12/13/13 10/9/13 17/31/13 18/29/13
f 4/3/14 2/2/14 14/33/14 13/32/14